<svg width="30" height="30" viewBox="0 0 30 30" fill="none" xmlns="http://www.w3.org/2000/svg">
<g clip-path="url(#clip0)">
<path d="M25.9804 12.2209C25.5564 11.984 25.0208 12.1316 24.7822 12.5522C24.5428 12.9744 24.6912 13.5109 25.1135 13.7503C27.0936 14.8722 28.2423 16.2523 28.2423 17.6367C28.2423 20.0426 24.935 22.3162 20.0993 23.2956C19.6229 23.3925 19.3157 23.856 19.4118 24.3316C19.5096 24.8117 19.9794 25.1155 20.4478 25.019C26.2147 23.8509 30.0001 20.9533 30.0001 17.6367C30.0001 15.5914 28.5348 13.668 25.9804 12.2209Z" fill="black"/>
<path d="M10.6055 25.2021V28.1836C10.6055 28.5081 10.784 28.8059 11.0698 28.9587C11.3517 29.1099 11.6994 29.0966 11.9719 28.9149L17.2454 25.3993C17.49 25.2363 17.6368 24.9616 17.6368 24.6681C17.6368 24.3746 17.49 24.0999 17.2454 23.9368L11.9719 20.4212C11.7016 20.2427 11.3539 20.2238 11.0698 20.3774C10.784 20.5301 10.6055 20.828 10.6055 21.1524V23.4035C5.46668 22.5231 1.75781 20.1849 1.75781 17.6368C1.75781 16.2523 2.90648 14.8721 4.88654 13.7504C5.30883 13.5109 5.4573 12.9745 5.21783 12.5522C4.97924 12.1316 4.44451 11.984 4.01965 12.2209C1.46537 13.668 0 15.5914 0 17.6368C0 21.2173 4.26762 24.2031 10.6055 25.2021Z" fill="black"/>
<path d="M22.0312 4.34928L15.3931 1.03018C15.1459 0.906606 14.8541 0.906606 14.6069 1.03018L7.96844 4.34946L15 7.8649L22.0312 4.34928Z" fill="black"/>
<path d="M22.9102 14.1207V5.875L15.8789 9.39062C15.8789 9.57109 15.8789 18.3601 15.8789 18.1797L22.4244 14.907C22.7222 14.7576 22.9102 14.4538 22.9102 14.1207Z" fill="black"/>
<path d="M7.08984 14.1209C7.08984 14.454 7.27781 14.7578 7.57564 14.9071L14.1211 18.1799C14.1211 17.5629 14.1211 9.21024 14.1211 9.39082L7.08984 5.87549V14.1209Z" fill="black"/>
</g>
<defs>
<clipPath id="clip0">
<rect width="30" height="30" fill="white"/>
</clipPath>
</defs>
</svg>
