<svg width="25" height="22" viewBox="0 0 25 22" fill="none" xmlns="http://www.w3.org/2000/svg">
<path d="M0.732481 19.0667H4.39458V21.2667C4.39458 21.6717 4.72251 22 5.127 22H24.2676C24.6721 22 25 21.6717 25 21.2667V2.2C25 1.795 24.6721 1.46667 24.2676 1.46667H20.6055V0.733333C20.6055 0.328338 20.2776 0 19.8731 0C19.4686 0 19.1406 0.328338 19.1406 0.733333V1.46667H15.4297V0.733333C15.4297 0.328338 15.1018 0 14.6973 0C14.2928 0 13.9649 0.328338 13.9649 0.733333V1.46667H10.3028V0.733333C10.3028 0.328338 9.97484 0 9.57035 0C9.16586 0 8.83793 0.328338 8.83793 0.733333V1.46667H5.127C4.72251 1.46667 4.39458 1.795 4.39458 2.2V6.6C4.39458 12.0047 2.15118 16.1625 0.263586 17.77C0.0266723 17.9676 -0.0611692 18.2927 0.0437622 18.583C0.148791 18.8733 0.424084 19.0667 0.732481 19.0667ZM23.5352 20.5333H5.85942V19.0667H19.8731C20.0444 19.0667 20.2103 19.0065 20.342 18.8967C21.2224 18.1624 22.5862 16.4142 23.5352 14.1752V20.5333ZM5.85942 2.93333H8.83793V3.66667C8.83793 4.07166 9.16586 4.4 9.57035 4.4C9.97484 4.4 10.3028 4.07166 10.3028 3.66667V2.93333H13.9649V3.66667C13.9649 4.07166 14.2928 4.4 14.6973 4.4C15.1018 4.4 15.4297 4.07166 15.4297 3.66667V2.93333H19.1406V3.66667C19.1406 4.07166 19.4686 4.4 19.8731 4.4C20.2776 4.4 20.6055 4.07166 20.6055 3.66667V2.93333H23.5352V5.86667H5.85942V2.93333ZM5.84687 7.33284H23.5222C23.3571 11.9849 21.5739 15.6451 19.5859 17.6H2.39844C4.65103 14.7263 5.72602 10.9845 5.84687 7.33284Z" fill="black"/>
</svg>
