<?xml version="1.0" encoding="utf-8"?>
<!-- Generator: Adobe Illustrator 25.0.0, SVG Export Plug-In . SVG Version: 6.00 Build 0)  -->
<svg version="1.1" id="Слой_1" xmlns="http://www.w3.org/2000/svg" xmlns:xlink="http://www.w3.org/1999/xlink" x="0px" y="0px"
	 viewBox="0 0 30 20.1" style="enable-background:new 0 0 30 20.1;" xml:space="preserve">
<path d="M22.3,5.1c-0.2,0-0.4,0-0.5,0c-0.6-1.4-1.5-2.6-2.7-3.5C17.6,0.6,15.9,0,14,0C9.4,0,5.6,3.7,5.6,8.2c0,0,0,0.1,0,0.1
	C2.5,8.6,0,11.1,0,14.2c0,3.2,2.7,5.9,6,5.9h16.3c4.2,0,7.7-3.4,7.7-7.5C30,8.5,26.6,5.1,22.3,5.1z M22.3,18.3H6
	c-2.3,0-4.2-1.8-4.2-4.1c0-2.3,1.9-4.1,4.2-4.1c0.1,0,0.3,0,0.5,0c0.3,0,0.6-0.1,0.8-0.3c0.2-0.2,0.3-0.5,0.2-0.8
	c0-0.3-0.1-0.6-0.1-0.9c0-3.5,3-6.4,6.6-6.4c2.9,0,5.5,1.9,6.3,4.6c0.1,0.4,0.6,0.7,1,0.6c0.3-0.1,0.7-0.1,1-0.1
	c3.2,0,5.8,2.6,5.8,5.7C28.2,15.8,25.6,18.3,22.3,18.3z"/>
</svg>
