<svg width="17" height="17" viewBox="0 0 17 17" fill="none" xmlns="http://www.w3.org/2000/svg">
<path d="M12.3982 0H4.60174C2.0643 0 0 2.0643 0 4.60174V12.3984C0 14.9357 2.0643 17 4.60174 17H12.3984C14.9357 17 17 14.9357 17 12.3984V4.60174C17 2.0643 14.9357 0 12.3982 0V0ZM8.49998 13.1483C5.93686 13.1483 3.85168 11.0631 3.85168 8.49998C3.85168 5.93686 5.93686 3.85168 8.49998 3.85168C11.0631 3.85168 13.1483 5.93686 13.1483 8.49998C13.1483 11.0631 11.0631 13.1483 8.49998 13.1483ZM13.2594 4.9479C12.502 4.9479 11.8859 4.33183 11.8859 3.57439C11.8859 2.81694 12.502 2.20074 13.2594 2.20074C14.0169 2.20074 14.6331 2.81694 14.6331 3.57439C14.6331 4.33183 14.0169 4.9479 13.2594 4.9479Z" fill="black"/>
<path d="M8.49977 4.84814C6.48632 4.84814 4.84808 6.48625 4.84808 8.49983C4.84808 10.5133 6.48632 12.1515 8.49977 12.1515C10.5134 12.1515 12.1515 10.5133 12.1515 8.49983C12.1515 6.48625 10.5134 4.84814 8.49977 4.84814Z" fill="black"/>
<path d="M13.2596 3.19727C13.0518 3.19727 12.8827 3.36639 12.8827 3.57417C12.8827 3.78195 13.0518 3.95108 13.2596 3.95108C13.4675 3.95108 13.6366 3.78208 13.6366 3.57417C13.6366 3.36626 13.4675 3.19727 13.2596 3.19727Z" fill="black"/>
</svg>
