<?xml version="1.0" encoding="utf-8"?>
<!-- Generator: Adobe Illustrator 25.0.0, SVG Export Plug-In . SVG Version: 6.00 Build 0)  -->
<svg version="1.1" id="Слой_1" xmlns="http://www.w3.org/2000/svg" xmlns:xlink="http://www.w3.org/1999/xlink" x="0px" y="0px"
	 viewBox="0 0 26 26" style="enable-background:new 0 0 26 26;" xml:space="preserve">
<style type="text/css">
	.st0{clip-path:url(#SVGID_2_);}
</style>
<g>
	<defs>
		<rect id="SVGID_1_" y="0" width="26" height="26"/>
	</defs>
	<clipPath id="SVGID_2_">
		<use xlink:href="#SVGID_1_"  style="overflow:visible;"/>
	</clipPath>
	<g class="st0">
		<path d="M25.9,16.8c-0.2-0.4-0.6-0.7-1-0.7c0,0,0,0,0,0c0,0,0,0,0,0c-0.1,0-0.2,0-0.2,0c0,0-0.1,0-0.1,0c0,0,0,0,0,0
			c-1.4,0.6-2.8,0.8-4.3,0.8C14,17.1,8.9,12,8.9,5.8c0-1.5,0.3-2.9,0.8-4.3c0,0,0,0,0-0.1c0,0,0,0,0-0.1c0-0.1,0-0.2,0-0.3
			c0,0,0,0,0,0c0,0,0,0,0,0c0-0.1,0-0.1,0-0.2c0,0,0,0,0,0c0-0.1,0-0.1-0.1-0.2c0,0,0,0,0-0.1C9.6,0.4,9.4,0.2,9.2,0.1
			C8.9,0,8.6,0,8.3,0.1c0,0,0,0,0,0C6.7,0.8,5.2,1.8,3.9,3c-5.2,5.3-5.2,13.8,0,19C6.6,24.7,10,26,13.5,26c3.4,0,6.9-1.3,9.5-3.9
			c1.3-1.3,2.2-2.7,2.9-4.3c0,0,0,0,0,0c0-0.1,0.1-0.1,0.1-0.2c0,0,0,0,0,0C26,17.3,26,17.1,25.9,16.8z M21.5,20.5
			c-4.4,4.4-11.6,4.4-16,0c-4.4-4.4-4.4-11.6,0-16c0.5-0.5,1-0.9,1.5-1.3C6.8,4.1,6.7,4.9,6.7,5.8c0,7.4,6,13.5,13.5,13.5
			c0.8,0,1.7-0.1,2.5-0.2C22.3,19.6,21.9,20.1,21.5,20.5z"/>
	</g>
</g>
</svg>
