<?xml version="1.0" encoding="utf-8"?>
<!-- Generator: Adobe Illustrator 25.0.0, SVG Export Plug-In . SVG Version: 6.00 Build 0)  -->
<svg version="1.1" id="Слой_1" xmlns="http://www.w3.org/2000/svg" xmlns:xlink="http://www.w3.org/1999/xlink" x="0px" y="0px"
	 viewBox="0 0 29 23" style="enable-background:new 0 0 29 23;" xml:space="preserve">
<path d="M7.3,9.3c1.1-2.8,3.8-4.6,6.8-4.6C15.3,1.9,18.1,0,21.2,0C25.5,0,29,3.5,29,7.9c0,2.8-1.4,5.2-3.6,6.6
	c2.3,3.7-0.3,8.5-4.6,8.5C5.5,23,6.3,23,6,23c-3.4-0.4-6-3.3-6-6.8C0,12.1,3.4,8.9,7.3,9.3z M27.1,7.9c0-3.3-2.6-5.9-5.8-5.9
	c-2.2,0-4.1,1.2-5.1,3c3.1,0.9,5.2,3.7,5.2,7c1,0.1,1.9,0.5,2.7,1.1C25.8,12,27.1,10.1,27.1,7.9z M6.4,21c0.3,0,9.2,0,14.4,0
	c3.2,0,4.8-4,2.4-6.2c-0.7-0.7-1.7-1-2.7-0.9c-0.6,0.1-1.1-0.5-1.1-1.1c0.5-3.3-2-6.2-5.3-6.2c-2.4,0-4.5,1.6-5.2,4
	c-0.1,0.5-0.6,0.8-1.1,0.7c-3-0.6-5.9,1.7-5.9,4.8C1.9,18.7,3.9,20.8,6.4,21z"/>
</svg>
