<?xml version="1.0" encoding="utf-8"?>
<!-- Generator: Adobe Illustrator 25.0.0, SVG Export Plug-In . SVG Version: 6.00 Build 0)  -->
<svg version="1.1" id="Слой_1" xmlns="http://www.w3.org/2000/svg" xmlns:xlink="http://www.w3.org/1999/xlink" x="0px" y="0px"
	 viewBox="0 0 30 30" style="enable-background:new 0 0 30 30;" xml:space="preserve">
<style type="text/css">
	.st0{clip-path:url(#SVGID_2_);}
</style>
<g>
	<defs>
		<rect id="SVGID_1_" width="30" height="30"/>
	</defs>
	<clipPath id="SVGID_2_">
		<use xlink:href="#SVGID_1_"  style="overflow:visible;"/>
	</clipPath>
	<g class="st0">
		<path d="M24.1,26.1c0.8,0,1.4-0.6,1.4-1.4c0-0.8-0.6-1.4-1.4-1.4c-0.8,0-1.4,0.6-1.4,1.4C22.7,25.5,23.4,26.1,24.1,26.1z"/>
		<path d="M18.1,26.1c0.8,0,1.4-0.6,1.4-1.4c0-0.8-0.6-1.4-1.4-1.4c-0.8,0-1.4,0.6-1.4,1.4C16.7,25.5,17.3,26.1,18.1,26.1z"/>
		<path d="M12,26.1c0.8,0,1.4-0.6,1.4-1.4c0-0.8-0.6-1.4-1.4-1.4c-0.8,0-1.4,0.6-1.4,1.4C10.6,25.5,11.2,26.1,12,26.1z"/>
		<path d="M6,26.1c0.8,0,1.4-0.6,1.4-1.4c0-0.8-0.6-1.4-1.4-1.4S4.6,24,4.6,24.7C4.6,25.5,5.2,26.1,6,26.1z"/>
		<path d="M21.1,29.9c0.8,0,1.4-0.6,1.4-1.4c0-0.8-0.6-1.4-1.4-1.4c-0.8,0-1.4,0.6-1.4,1.4C19.7,29.3,20.3,29.9,21.1,29.9z"/>
		<path d="M15,29.9c0.8,0,1.4-0.6,1.4-1.4c0-0.8-0.6-1.4-1.4-1.4c-0.8,0-1.4,0.6-1.4,1.4C13.7,29.3,14.3,29.9,15,29.9z"/>
		<path d="M9,29.9c0.8,0,1.4-0.6,1.4-1.4c0-0.8-0.6-1.4-1.4-1.4c-0.8,0-1.4,0.6-1.4,1.4C7.6,29.3,8.2,29.9,9,29.9z"/>
		<path d="M22.3,5.2c-0.2,0-0.3,0-0.5,0c-1.3-3-4.4-5.1-7.8-5.1c-4.7,0-8.4,3.7-8.4,8.3c0,0,0,0,0,0C2.5,8.7,0,11.2,0,14.3
			c0,3.3,2.7,5.9,6.1,5.9h16.2c4.2,0,7.7-3.4,7.7-7.5C30,8.6,26.5,5.2,22.3,5.2z M22.3,18.3H6.1c-2.3,0-4.1-1.8-4.1-4
			c0-2.2,1.8-4,4.1-4c0.1,0,0.3,0,0.5,0c0.3,0,0.6-0.1,0.8-0.3c0.2-0.2,0.3-0.5,0.3-0.8c0-0.3-0.1-0.6-0.1-0.9
			c0-3.5,2.9-6.3,6.5-6.3c2.8,0,5.4,1.8,6.2,4.5c0.1,0.5,0.6,0.8,1.1,0.7c0.3-0.1,0.6-0.1,1-0.1c3.2,0,5.7,2.5,5.7,5.6
			C28,15.8,25.5,18.3,22.3,18.3z"/>
	</g>
</g>
</svg>
