<?xml version="1.0" encoding="utf-8"?>
<!-- Generator: Adobe Illustrator 25.0.0, SVG Export Plug-In . SVG Version: 6.00 Build 0)  -->
<svg version="1.1" id="Слой_1" xmlns="http://www.w3.org/2000/svg" xmlns:xlink="http://www.w3.org/1999/xlink" x="0px" y="0px"
	 viewBox="0 0 27 27" style="enable-background:new 0 0 27 27;" xml:space="preserve">
<style type="text/css">
	.st0{clip-path:url(#SVGID_2_);}
</style>
<g>
	<defs>
		<rect id="SVGID_1_" width="27" height="27"/>
	</defs>
	<clipPath id="SVGID_2_">
		<use xlink:href="#SVGID_1_"  style="overflow:visible;"/>
	</clipPath>
	<g class="st0">
		<g>
			<path d="M21.4,26.4c-0.1,0-0.2,0-0.4-0.1l-7.5-3.9l-7.6,4l-0.2,0c-0.2,0-0.3-0.1-0.5-0.1c-0.2-0.2-0.4-0.5-0.3-0.8l1.4-8.3
				l-6.1-5.9C0,11-0.1,10.7,0,10.4c0.1-0.3,0.3-0.5,0.6-0.5L9,8.6l3.7-7.6l0,0l0,0l0,0c0,0,0,0,0,0l0.3-0.5l0.3,0.1
				c0.3,0,0.7,0.1,0.8,0.4l0.1,0l0,0L18,8.6l8.4,1.2c0.3,0,0.5,0.3,0.6,0.5c0.1,0.3,0,0.6-0.2,0.8l-6.1,5.9l1.4,8.3
				c0.1,0.3-0.1,0.6-0.3,0.8C21.7,26.3,21.5,26.4,21.4,26.4z M20.9,25.7C20.9,25.7,20.9,25.7,20.9,25.7L20.9,25.7z M6.1,25.7
				L6.1,25.7C6.1,25.7,6.1,25.7,6.1,25.7z M1.9,11l5.8,5.7l-1.4,8l7.2-3.8l7.2,3.8l-1.4-8l5.8-5.7l-8-1.2l-3.6-7.3L9.9,9.8L1.9,11z"
				/>
		</g>
	</g>
</g>
</svg>
