<svg width="27" height="27" viewBox="0 0 27 27" fill="none" xmlns="http://www.w3.org/2000/svg">
<g clip-path="url(#clip0)">
<path d="M26.9614 10.4023C26.8683 10.1159 26.6208 9.90719 26.3229 9.86395L17.9528 8.64764L14.2094 1.06304C14.0762 0.793043 13.8012 0.622131 13.5002 0.622131C13.1991 0.622131 12.9241 0.793043 12.7908 1.06304L9.04735 8.64764L0.67738 9.86395C0.379485 9.90719 0.131898 10.1159 0.0388747 10.4023C-0.0542011 10.6887 0.0234236 11.003 0.239054 11.2132L6.29547 17.117L4.86595 25.4533C4.81501 25.7501 4.93704 26.05 5.18061 26.227C5.31841 26.3271 5.48162 26.378 5.64562 26.378C5.77155 26.378 5.8979 26.348 6.0136 26.2872L13.5001 22.3512L20.9863 26.2871C21.2529 26.4272 21.5758 26.4039 21.8194 26.2269C22.0629 26.05 22.185 25.75 22.1341 25.4532L20.7041 17.117L26.7612 11.2131C26.9768 11.003 27.0545 10.6887 26.9614 10.4023Z" fill="black"/>
</g>
<defs>
<clipPath id="clip0">
<rect width="27" height="27" fill="white"/>
</clipPath>
</defs>
</svg>
