<?xml version="1.0" encoding="utf-8"?>
<!-- Generator: Adobe Illustrator 25.0.0, SVG Export Plug-In . SVG Version: 6.00 Build 0)  -->
<svg version="1.1" id="Слой_1" xmlns="http://www.w3.org/2000/svg" xmlns:xlink="http://www.w3.org/1999/xlink" x="0px" y="0px"
	 viewBox="0 0 30 30" style="enable-background:new 0 0 30 30;" xml:space="preserve">
<path d="M15,25c-0.6,0-1,0.5-1,1V29c0,0.6,0.5,1,1,1c0.6,0,1-0.5,1-1v-2.9C16,25.5,15.6,25,15,25z"/>
<path d="M15,5c0.6,0,1-0.5,1-1V1c0-0.6-0.5-1-1-1c-0.6,0-1,0.5-1,1v2.9C14,4.5,14.4,5,15,5z"/>
<path d="M6.5,22.1l-2.1,2.1c-0.4,0.4-0.4,1,0,1.4c0.2,0.2,0.5,0.3,0.7,0.3c0.3,0,0.5-0.1,0.7-0.3l2.1-2.1c0.4-0.4,0.4-1,0-1.4
	C7.5,21.7,6.9,21.7,6.5,22.1z"/>
<path d="M22.8,8.2c0.3,0,0.5-0.1,0.7-0.3l2.1-2.1c0.4-0.4,0.4-1,0-1.4c-0.4-0.4-1-0.4-1.4,0l-2.1,2.1c-0.4,0.4-0.4,1,0,1.4
	C22.3,8.1,22.6,8.2,22.8,8.2z"/>
<path d="M5,15c0-0.6-0.5-1-1-1H1c-0.6,0-1,0.5-1,1c0,0.6,0.5,1,1,1h2.9C4.5,16,5,15.6,5,15z"/>
<path d="M29,14h-2.9c-0.6,0-1,0.5-1,1c0,0.6,0.5,1,1,1H29c0.6,0,1-0.5,1-1C30,14.4,29.5,14,29,14z"/>
<path d="M6.5,7.9c0.2,0.2,0.5,0.3,0.7,0.3c0.3,0,0.5-0.1,0.7-0.3c0.4-0.4,0.4-1,0-1.4L5.8,4.4C5.4,4,4.8,4,4.4,4.4
	C4,4.8,4,5.4,4.4,5.8L6.5,7.9z"/>
<path d="M23.5,22.1c-0.4-0.4-1-0.4-1.4,0c-0.4,0.4-0.4,1,0,1.4l2.1,2.1c0.2,0.2,0.5,0.3,0.7,0.3c0.3,0,0.5-0.1,0.7-0.3
	c0.4-0.4,0.4-1,0-1.4L23.5,22.1z"/>
<path d="M15,7c-4.4,0-8,3.6-8,8c0,4.4,3.6,8,8,8c4.4,0,8-3.6,8-8C23,10.6,19.4,7,15,7z M15,20.9c-3.3,0-5.9-2.7-5.9-5.9
	c0-3.3,2.7-5.9,5.9-5.9c3.3,0,5.9,2.7,5.9,5.9C20.9,18.3,18.3,20.9,15,20.9z"/>
</svg>
