<?xml version="1.0" encoding="utf-8"?>
<!-- Generator: Adobe Illustrator 25.0.0, SVG Export Plug-In . SVG Version: 6.00 Build 0)  -->
<svg version="1.1" id="Слой_1" xmlns="http://www.w3.org/2000/svg" xmlns:xlink="http://www.w3.org/1999/xlink" x="0px" y="0px"
	 viewBox="0 0 30 27.8" style="enable-background:new 0 0 30 27.8;" xml:space="preserve">
<path d="M14.6,5.4c0.6,0,1.1-0.5,1.1-1.1V1.1c0-0.6-0.5-1.1-1.1-1.1c-0.6,0-1.1,0.5-1.1,1.1v3.3C13.5,5,14,5.4,14.6,5.4z"/>
<path d="M23.6,9.2c0.3,0,0.5-0.1,0.7-0.3l2.4-2.4c0.4-0.4,0.4-1.1,0-1.5c-0.4-0.4-1.1-0.4-1.5,0l-2.4,2.4c-0.4,0.4-0.4,1.1,0,1.5
	C23,9.1,23.3,9.2,23.6,9.2z"/>
<path d="M4.8,8.9c0.2,0.2,0.5,0.3,0.7,0.3c0.3,0,0.5-0.1,0.7-0.3c0.4-0.4,0.4-1.1,0-1.5L4,5C3.6,4.6,2.9,4.6,2.5,5
	c-0.4,0.4-0.4,1.1,0,1.5L4.8,8.9z"/>
<path d="M3,18.2h25.3c0.6,0,1.1-0.5,1.1-1.1S28.8,16,28.2,16h-4.7c-0.5-4.5-4.3-8-9-8c-4.6,0-8.4,3.5-9,8H3c-0.6,0-1.1,0.5-1.1,1.1
	C1.9,17.7,2.4,18.2,3,18.2z M14.6,10.2c3.5,0,6.3,2.5,6.8,5.9H7.7C8.2,12.7,11.1,10.2,14.6,10.2z"/>
<path d="M25.9,21.9c0-0.6-0.5-1.1-1.1-1.1H1.1c-0.6,0-1.1,0.5-1.1,1.1S0.5,23,1.1,23h23.8C25.5,23,25.9,22.5,25.9,21.9z"/>
<path d="M28.9,25.7H5.2c-0.6,0-1.1,0.5-1.1,1.1s0.5,1.1,1.1,1.1h23.8c0.6,0,1.1-0.5,1.1-1.1S29.5,25.7,28.9,25.7z"/>
</svg>
