<svg width="24" height="24" viewBox="0 0 24 24" fill="none" xmlns="http://www.w3.org/2000/svg">
<g clip-path="url(#clip0)">
<path d="M20.6701 3.69419C18.4049 1.3298 15.2707 -0.00453964 11.9964 0.00148516C5.37922 -0.00684915 0.0081607 5.35066 -0.000173606 11.9678C-0.00429055 15.2398 1.3299 18.3711 3.69253 20.6347C3.69941 20.6415 3.70197 20.6518 3.7088 20.6578C3.77818 20.7246 3.85359 20.7812 3.92388 20.8455C4.11667 21.0168 4.30947 21.1942 4.51255 21.3596C4.62135 21.4453 4.73447 21.531 4.84588 21.6098C5.03782 21.7529 5.22976 21.896 5.43023 22.028C5.56649 22.1137 5.70702 22.1993 5.84665 22.285C6.03171 22.3964 6.21597 22.5086 6.40705 22.6106C6.56902 22.6963 6.73435 22.77 6.89888 22.8479C7.07882 22.9336 7.2562 23.0193 7.44041 23.0964C7.62462 23.1735 7.80973 23.2335 7.9965 23.3004C8.18327 23.3672 8.34438 23.4289 8.52347 23.4837C8.7257 23.5446 8.93305 23.5917 9.1387 23.6422C9.31005 23.6842 9.47629 23.7322 9.65282 23.7665C9.88929 23.8136 10.1292 23.8436 10.3692 23.8762C10.5174 23.8968 10.6622 23.9259 10.8121 23.9404C11.2046 23.979 11.6004 24.0004 11.9997 24.0004C12.399 24.0004 12.7949 23.979 13.1873 23.9404C13.3373 23.9259 13.4821 23.8968 13.6303 23.8762C13.8702 23.8436 14.1101 23.8136 14.3466 23.7665C14.518 23.7322 14.6894 23.6808 14.8608 23.6422C15.0664 23.5917 15.2738 23.5445 15.476 23.4837C15.6551 23.4289 15.8281 23.3621 16.003 23.3004C16.1778 23.2386 16.3765 23.1718 16.559 23.0964C16.7415 23.021 16.9206 22.9327 17.1006 22.8479C17.2651 22.77 17.4305 22.6963 17.5924 22.6106C17.7835 22.5086 17.9677 22.3964 18.1528 22.285C18.2925 22.1993 18.433 22.1213 18.5692 22.028C18.7697 21.896 18.9617 21.7529 19.1536 21.6098C19.265 21.5241 19.3781 21.447 19.4869 21.3596C19.69 21.1968 19.8828 21.0237 20.0756 20.8455C20.1458 20.7812 20.2212 20.7247 20.2907 20.6578C20.2975 20.6518 20.3001 20.6416 20.3069 20.6347C25.0853 16.0569 25.2478 8.47241 20.6701 3.69419ZM18.7442 19.7375C18.5883 19.8746 18.4271 20.0049 18.2644 20.1309C18.1684 20.2046 18.0724 20.2774 17.9739 20.3476C17.8188 20.4599 17.6611 20.5661 17.5009 20.6681C17.3843 20.7427 17.2653 20.8146 17.1453 20.8849C16.9944 20.9706 16.8411 21.0563 16.686 21.142C16.5489 21.2122 16.4092 21.2782 16.2687 21.3433C16.1282 21.4085 15.9731 21.4778 15.8214 21.5387C15.6697 21.5995 15.5087 21.6569 15.3501 21.7101C15.2053 21.7598 15.0605 21.8112 14.914 21.8548C14.7426 21.9063 14.5635 21.9482 14.3862 21.9911C14.2473 22.0236 14.1103 22.0605 13.9697 22.088C13.7667 22.1274 13.5593 22.1548 13.3511 22.1831C13.2329 22.1985 13.1155 22.2199 12.9963 22.2319C12.6673 22.2636 12.334 22.2825 11.9972 22.2825C11.6605 22.2825 11.3272 22.2636 10.9981 22.2319C10.879 22.2199 10.7616 22.1985 10.6433 22.1831C10.4351 22.1548 10.2278 22.1274 10.0247 22.088C9.88417 22.0605 9.74705 22.0237 9.60828 21.9911C9.4309 21.9483 9.25438 21.9054 9.08046 21.8548C8.93396 21.8112 8.78911 21.7598 8.64431 21.7101C8.48581 21.6552 8.32726 21.5995 8.17302 21.5387C8.01879 21.4778 7.87314 21.411 7.72573 21.3433C7.57833 21.2757 7.44553 21.2123 7.30846 21.142C7.15338 21.0614 6.99999 20.9766 6.84917 20.8849C6.72923 20.8147 6.61009 20.7427 6.49356 20.6681C6.33335 20.5661 6.17565 20.4599 6.02056 20.3476C5.92201 20.2774 5.82606 20.2046 5.73007 20.1309C5.56725 20.0049 5.40618 19.8738 5.25024 19.7375C5.21254 19.7093 5.17824 19.6733 5.14144 19.6407C5.17975 16.7258 7.05231 14.152 9.81393 13.2185C11.1948 13.8753 12.798 13.8753 14.1788 13.2185C16.9404 14.152 18.8129 16.7258 18.8513 19.6407C18.8153 19.6733 18.781 19.7059 18.7442 19.7375ZM9.00841 6.87167C9.93618 5.22168 12.0258 4.63622 13.6758 5.56398C15.3258 6.49175 15.9113 8.58141 14.9835 10.2314C14.6757 10.7789 14.2233 11.2312 13.6758 11.5391C13.6716 11.5391 13.6664 11.5391 13.6613 11.5442C13.434 11.6707 13.1939 11.7724 12.9449 11.8476C12.9004 11.8604 12.8592 11.8775 12.8121 11.8887C12.7264 11.911 12.6364 11.9264 12.5482 11.9418C12.382 11.9709 12.2139 11.9877 12.0452 11.9923H11.9475C11.7789 11.9877 11.6107 11.9709 11.4445 11.9418C11.3588 11.9264 11.268 11.911 11.1807 11.8887C11.1352 11.8775 11.095 11.8604 11.0479 11.8476C10.7989 11.7724 10.5587 11.6707 10.3315 11.5442L10.3161 11.5391C8.6661 10.6113 8.08064 8.52166 9.00841 6.87167ZM20.3713 17.9416C19.8215 15.3769 18.1326 13.2026 15.7837 12.0353C17.7039 9.94361 17.5648 6.69138 15.4731 4.77122C13.3815 2.85107 10.1292 2.99014 8.20907 5.0818C6.40394 7.04819 6.40394 10.0689 8.20907 12.0353C5.86015 13.2026 4.1713 15.3769 3.62144 17.9416C0.335709 13.3134 1.42399 6.89788 6.05219 3.61215C10.6804 0.326423 17.0959 1.4147 20.3816 6.04291C21.6168 7.78272 22.2798 9.86384 22.2787 11.9975C22.2787 14.1293 21.6118 16.2078 20.3713 17.9416Z" fill="black"/>
</g>
<defs>
<clipPath id="clip0">
<rect width="24" height="24" fill="white"/>
</clipPath>
</defs>
</svg>
