<svg width="17" height="17" viewBox="0 0 17 17" fill="none" xmlns="http://www.w3.org/2000/svg">
<g clip-path="url(#clip0)">
<path d="M16.8484 12.302C16.8027 12.2255 16.52 11.6113 15.1599 10.349C13.7361 9.02713 13.9273 9.24177 15.6423 6.95616C16.6868 5.56419 17.1044 4.71412 16.9737 4.35072C16.8494 4.00432 16.0812 4.0957 16.0812 4.0957L13.5267 4.11058C13.5267 4.11058 13.3376 4.08508 13.1963 4.16902C13.0592 4.2519 12.971 4.44316 12.971 4.44316C12.971 4.44316 12.5662 5.52062 12.0264 6.43656C10.8884 8.36939 10.4325 8.4714 10.2466 8.35133C9.81409 8.07187 9.92247 7.22712 9.92247 6.62783C9.92247 4.7545 10.2062 3.9735 9.36887 3.77161C9.09048 3.70467 8.88646 3.66004 8.17559 3.65261C7.2639 3.64304 6.49141 3.65579 6.05469 3.86937C5.76354 4.01176 5.53934 4.32947 5.67641 4.34753C5.84536 4.36985 6.22789 4.4506 6.43084 4.72687C6.6933 5.08284 6.68373 5.88402 6.68373 5.88402C6.68373 5.88402 6.83462 8.08887 6.33202 8.36302C5.98668 8.5511 5.51383 8.1675 4.49907 6.41319C3.97947 5.51531 3.58632 4.5218 3.58632 4.5218C3.58632 4.5218 3.51087 4.33691 3.37593 4.23809C3.21229 4.11802 2.98277 4.07976 2.98277 4.07976L0.553719 4.09464C0.553719 4.09464 0.189254 4.10526 0.0553692 4.26359C-0.0636396 4.40491 0.045806 4.69606 0.045806 4.69606C0.045806 4.69606 1.94782 9.14508 4.10061 11.3882C6.07594 13.4443 8.31798 13.3093 8.31798 13.3093H9.33381C9.33381 13.3093 9.64089 13.2753 9.79709 13.1064C9.9416 12.9512 9.93629 12.6601 9.93629 12.6601C9.93629 12.6601 9.9161 11.2968 10.5494 11.096C11.1731 10.8983 11.9743 12.4136 12.8233 12.9969C13.4651 13.4379 13.9528 13.3412 13.9528 13.3412L16.2236 13.3093C16.2236 13.3093 17.4115 13.236 16.8484 12.302Z" fill="black"/>
</g>
<defs>
<clipPath id="clip0">
<rect width="17" height="17" fill="white"/>
</clipPath>
</defs>
</svg>
