<?xml version="1.0" encoding="utf-8"?>
<!-- Generator: Adobe Illustrator 25.0.0, SVG Export Plug-In . SVG Version: 6.00 Build 0)  -->
<svg version="1.1" id="Слой_1" xmlns="http://www.w3.org/2000/svg" xmlns:xlink="http://www.w3.org/1999/xlink" x="0px" y="0px"
	 viewBox="0 0 30 25" style="enable-background:new 0 0 30 25;" xml:space="preserve">
<path d="M23,9.6c-3.2,0-5.8,2.6-5.8,5.8c0,2.7,2.2,4.8,4.8,4.8c0.5,0,1-0.4,1-1c0-0.5-0.4-1-1-1c-1.6,0-2.8-1.3-2.8-2.8
	c0-2.1,1.7-3.8,3.8-3.8c2.7,0,5,2.2,5,5c0,3.6-2.9,6.5-6.5,6.5H1c-0.5,0-1,0.4-1,1c0,0.5,0.4,1,1,1h20.6c4.7,0,8.4-3.8,8.4-8.4
	C30,12.7,26.9,9.6,23,9.6z"/>
<path d="M1,17.6h9.2c3.1,0,5.6-2.5,5.6-5.6c0-2.6-2.1-4.7-4.7-4.7c-2.2,0-4,1.8-4,4c0,1.9,1.5,3.4,3.4,3.4c0.5,0,1-0.4,1-1
	c0-0.5-0.4-1-1-1c-0.8,0-1.4-0.6-1.4-1.4c0-1.1,0.9-2,2-2c1.5,0,2.7,1.2,2.7,2.7c0,2-1.6,3.7-3.7,3.7H1c-0.5,0-1,0.4-1,1
	C0,17.1,0.4,17.6,1,17.6z"/>
<path d="M17.3,8h6.9c2.4,0,4.4-2,4.4-4.4c0-2-1.6-3.7-3.7-3.7c-1.7,0-3.1,1.4-3.1,3.1c0,1.5,1.2,2.6,2.6,2.6c0.5,0,0.9-0.4,0.9-0.9
	c0-0.5-0.4-0.9-0.9-0.9c-0.5,0-0.9-0.4-0.9-0.9c0-0.8,0.6-1.4,1.4-1.4c1.1,0,1.9,0.9,1.9,1.9c0,1.5-1.2,2.6-2.6,2.6h-6.9
	c-0.5,0-0.9,0.4-0.9,0.9C16.4,7.6,16.8,8,17.3,8z"/>
</svg>
