<svg width="17" height="17" viewBox="0 0 17 17" fill="none" xmlns="http://www.w3.org/2000/svg">
<path d="M16.132 4.51659C15.9483 3.83382 15.41 3.2956 14.7273 3.11175C13.4802 2.77051 8.49144 2.77051 8.49144 2.77051C8.49144 2.77051 3.5029 2.77051 2.25574 3.09881C1.5862 3.28246 1.03475 3.83392 0.851093 4.51659C0.522888 5.76365 0.522888 8.3499 0.522888 8.3499C0.522888 8.3499 0.522888 10.9492 0.851093 12.1832C1.03494 12.8659 1.57307 13.4041 2.25584 13.5879C3.51603 13.9293 8.49164 13.9293 8.49164 13.9293C8.49164 13.9293 13.4802 13.9293 14.7273 13.601C15.4101 13.4172 15.9483 12.879 16.1322 12.1963C16.4603 10.9492 16.4603 8.36303 16.4603 8.36303C16.4603 8.36303 16.4734 5.76365 16.132 4.51659ZM6.90314 10.7392V5.96063L11.0515 8.3499L6.90314 10.7392Z" fill="black"/>
</svg>
