<svg width="148" height="65" viewBox="0 0 148 65" fill="none" xmlns="http://www.w3.org/2000/svg">
<path fill-rule="evenodd" clip-rule="evenodd" d="M16.4317 58.211V58.8386C18.1996 59.5504 20.067 59.9407 22.0033 59.9407C24.2151 59.9407 26.3504 59.4279 28.3479 58.5019V57.8666C26.3581 58.8233 24.2228 59.3514 22.0033 59.3514C20.067 59.3514 18.1996 58.9534 16.4317 58.211ZM21.1155 33.0699C21.1079 33.0699 21.1002 33.0699 21.0926 33.0699C21.1002 33.0622 21.1002 33.0622 21.1155 33.0699ZM16.4317 59.8412C18.2073 60.5147 20.0747 60.8897 22.0033 60.8897C24.2151 60.8897 26.3428 60.4152 28.3479 59.5351V60.5989C26.3428 61.4408 24.2151 61.8923 22.0033 61.8923C20.0747 61.8923 18.2073 61.5479 16.4317 60.8974V59.8412ZM9.81157 26.312C9.81922 26.312 9.83453 26.312 9.84218 26.3196C9.84983 26.3196 9.85749 26.3196 9.86514 26.3196C9.84983 26.3196 9.83453 26.3196 9.81157 26.312ZM28.1719 18.0234C28.1107 18.1994 28.0724 18.475 28.0648 18.7352C28.0265 18.7199 27.9882 18.6969 27.9423 18.6663C27.8352 18.5898 27.8505 18.5362 27.8198 18.4826C27.8198 18.4903 27.7433 18.1306 27.7127 18.0464C27.6744 17.9239 27.2688 18.0387 27.2688 18.0387C27.2688 18.0387 27.2535 18.1918 27.2382 18.2377C27.2229 18.2989 27.0545 18.2913 26.8861 18.2836C26.7637 18.276 26.58 18.1459 26.404 18.0158C26.228 17.8857 26.1591 17.6561 26.0443 17.6331C25.7228 17.5489 25.9601 17.8321 25.256 17.6408C25.0953 17.5948 24.9345 17.5183 24.8121 17.4418C24.8427 17.3805 24.881 17.327 24.9269 17.3117C25.1412 17.2275 25.3096 17.2428 25.432 17.2045C25.8682 17.0515 25.8529 17.0132 26.1132 16.7836C26.2586 16.6535 26.3657 16.4775 26.4499 16.3014C26.6412 16.3627 27.3377 16.6152 27.7586 16.8754C28.0571 17.0591 28.2714 17.2504 28.4015 17.3805C28.2944 17.6255 28.2255 17.878 28.1719 18.0234ZM29.2204 16.5234L27.5979 15.3983L27.9806 15.2606C27.9806 15.2606 27.927 15.1687 27.8734 14.9927C27.8428 14.8856 27.8198 14.8014 27.8045 14.7248C27.7204 14.7555 27.6209 14.7784 27.5137 14.7937C27.3224 14.8243 27.0469 14.809 26.9321 14.7937C26.7943 15.1534 26.6795 15.6739 26.6412 15.781C26.6259 15.8193 26.603 15.9035 26.5647 16.0106L26.5953 15.9647C26.5953 15.9647 27.7586 16.3244 28.5622 17.0361C28.6311 16.929 28.7076 16.8372 28.7995 16.7759C28.9602 16.6611 29.098 16.5769 29.2204 16.5234ZM28.7459 13.6381C29.052 13.485 29.5418 13.5768 29.8633 13.8447C30.1847 14.1126 30.1082 14.6789 30.0623 14.8703C30.0164 15.0616 29.6643 15.4213 29.2587 15.4902C28.853 15.5591 28.4551 15.2835 28.3479 15.184C28.0418 14.9009 28.0035 13.9978 28.7459 13.6381ZM31.348 21.7506C31.348 21.7506 31.3174 22.5618 30.9501 22.6078C30.9883 22.6001 30.6516 22.5465 30.2995 22.3858C29.8709 22.1945 29.3888 21.873 29.2587 21.7659C28.7153 21.3067 28.6005 20.947 28.6847 20.0592C28.7153 19.7454 29.0597 19.7607 29.0597 19.7607L29.5801 19.6536L29.5342 19.3168C29.5342 19.3168 28.9143 19.4163 28.8071 19.4393C28.7 19.4622 28.5086 19.2403 28.5086 18.9036C28.5086 18.5668 28.5852 18.0158 28.5852 18.0158C28.5852 18.0158 28.7229 17.4647 28.9985 17.2351C29.1745 17.0897 29.6949 16.6305 29.9322 16.952C29.9934 17.0285 30.5521 17.4724 30.5521 17.4724L30.82 17.1892L30.3837 16.5846C30.3837 16.5846 30.4679 15.7274 30.9654 15.5514C31.4934 15.3601 31.9986 15.5361 32.1976 15.6968C32.3889 15.8575 32.7639 15.9723 32.9705 16.0106C33.1772 16.0489 33.6134 16.2938 33.491 16.6688C33.3762 17.0438 32.9399 17.5489 32.9399 17.5489L33.3149 17.7249L33.6746 17.1816C33.6746 17.1816 33.7588 17.0132 34.0803 17.2198C34.44 17.4494 35.0905 17.8933 35.0676 18.2913C35.0446 18.6893 35.0446 18.9418 35.0599 19.2097C35.0676 19.4776 35.0829 19.8296 34.9681 20.0362C34.8533 20.2429 34.8609 20.3577 34.5395 20.3577C34.2104 20.3577 33.7588 20.35 33.7588 20.35L33.7435 20.7404L34.5701 20.8092C34.5701 20.8092 34.9221 20.9546 34.7844 21.1842C34.8303 21.1077 34.6083 22.1409 34.3099 22.3782C34.0037 22.6231 33.7359 22.5772 33.4986 22.7149C33.2614 22.8527 33.0318 23.1052 32.9017 23.1512C32.7715 23.1971 32.0445 23.2813 31.8685 22.9904C31.6312 22.6078 31.8455 22.0567 31.8761 21.896L31.348 21.7506ZM36.1007 18.0005C35.963 17.5872 35.9706 17.1816 36.0166 16.8448C35.8099 16.9979 35.5267 17.1127 35.1364 17.1127C35.0369 17.1127 34.8992 17.1127 34.7614 17.105C34.9987 17.2887 35.3048 17.5566 35.4273 17.9852C35.4655 17.9852 35.4885 17.9852 35.4885 17.9852C35.4885 17.9852 35.8023 18.0387 36.1237 18.1688C36.139 18.1765 36.1543 18.1765 36.1696 18.1841C36.1467 18.1306 36.1237 18.0693 36.1007 18.0005ZM35.0216 23.7864C35.0293 23.8553 35.1135 24.1155 35.0216 24.2532C34.9298 24.391 34.8686 24.5211 34.6237 24.5211C34.5089 24.5211 34.7385 24.7354 34.7461 24.7584C34.7461 24.766 34.7538 24.7737 34.7614 24.789C34.7614 24.789 35.3431 25.4395 36.1314 25.2635C36.2997 25.2252 36.4222 25.1946 36.5293 25.1716C36.537 25.1487 36.5599 25.1181 36.5982 25.0798C36.9962 24.6895 36.9426 24.3221 36.9273 24.1155C36.8814 23.6639 36.537 23.3961 35.7181 23.3272C35.2665 23.2889 35.0063 23.618 34.9681 23.6716C35.0063 23.7175 35.0216 23.7634 35.0216 23.7864ZM34.7844 24.0542C34.7844 23.9777 34.7844 23.9012 34.7767 23.8553C34.7614 23.8017 34.7385 23.7634 34.6925 23.7558C34.6466 23.7405 34.6083 23.7481 34.5471 23.7252C34.4859 23.7022 34.3941 23.6257 34.3175 23.5568C34.2486 23.4879 34.1185 23.3042 34.0879 23.2506C34.0267 23.1588 33.9578 23.0364 33.9196 22.9751C33.644 23.1052 33.4986 23.2506 33.3838 23.3501C33.468 23.5415 33.6517 23.9701 33.7588 24.4522C33.8583 24.9038 33.8889 25.6308 33.9042 26.0824C34.0344 25.9676 34.1874 25.9293 34.2869 25.891C34.3175 25.8145 34.3941 25.5696 34.3941 25.2329C34.3941 24.8272 34.3252 24.7354 34.3175 24.59C34.3022 24.4446 34.3022 24.3604 34.2946 24.2915C34.2869 24.2226 34.2793 24.1308 34.2793 24.1308C34.2793 24.1308 34.3558 24.2226 34.4782 24.2456C34.6007 24.2685 34.7002 24.2073 34.7385 24.192C34.7691 24.169 34.7844 24.1308 34.7844 24.0542ZM32.5879 25.0186C32.3965 24.9803 32.4042 25.0109 32.343 24.988C32.0751 24.8808 31.9144 24.2992 31.7996 23.6945C31.7766 23.5874 31.746 23.4956 31.746 23.4956V23.4726C31.9373 23.5797 32.1593 23.6639 32.3965 23.6486C32.6414 23.6333 32.8557 23.5568 33.0165 23.5109C33.0624 23.618 33.2001 24.0772 33.3762 24.6129C33.5216 25.0492 33.5292 26.0671 33.5216 26.4344C33.468 26.4038 33.2996 26.3426 33.093 26.4191C33.0318 26.2967 32.9246 26.0135 32.894 25.738C32.8557 25.3706 32.8404 25.2252 32.8251 25.164C32.8251 25.1104 32.7869 25.0568 32.5879 25.0186ZM32.894 26.8477C32.894 26.8477 32.8864 26.8554 32.8787 26.8554C32.8864 26.8554 32.8863 26.8554 32.894 26.8477ZM36.1543 31.7076C36.4834 31.853 36.889 32.427 36.8202 32.8097C36.7283 33.2765 36.5217 33.4908 36.1849 33.6439C35.8865 33.7816 35.2742 33.5903 34.9757 33.2382C34.6772 32.8862 34.6925 32.5954 34.7231 32.427C34.7538 32.2663 34.8303 32.2127 34.8533 32.1285C34.8686 32.0826 34.9834 32.0061 34.9834 32.0061C34.9834 32.0061 34.7767 31.5698 34.7002 31.3938C34.8609 31.3479 35.1288 31.2254 35.2742 31.1642L35.4885 31.5622C35.4961 31.5775 35.8329 31.5698 36.1543 31.7076ZM36.713 29.1054C36.713 29.0366 36.7895 28.6003 36.7436 28.3554C36.6977 28.1029 36.5676 27.7967 36.4681 27.7738C36.3686 27.7508 35.8329 28.0799 35.8329 28.0799L35.6492 27.7814C35.6492 27.7814 36.0013 27.5595 36.0242 27.3452C36.0472 27.1309 36.0778 27.0314 35.9324 26.9013C35.2742 26.312 35.2206 26.0977 34.6466 26.09C34.3864 26.0824 34.2486 26.2048 34.0956 26.2967C33.9425 26.3885 33.8583 26.5569 33.866 26.7329C33.8736 26.9013 33.9961 27.1998 33.9961 27.1998L33.7282 27.3146C33.7282 27.3146 33.7129 27.284 33.6364 27.0697C33.5598 26.8554 33.5369 26.8707 33.4221 26.7941C33.3226 26.7253 33.116 26.7559 32.9629 26.8248C32.9399 26.8477 32.9093 26.863 32.894 26.863C32.7409 27.0084 32.0674 27.659 32.0751 28.1947C32.0828 28.3554 32.1057 28.7457 32.1669 28.7917C32.2282 28.8376 32.7333 28.8452 32.7333 28.8452L32.7409 29.1361L32.2052 29.1437C32.2052 29.1437 32.1057 29.2738 32.1593 29.4498C32.2205 29.6718 32.4425 29.9397 32.4425 29.9397C32.4425 29.9397 32.5879 30.1769 32.6338 30.2611C32.6797 30.3376 32.8404 30.5978 33.0241 30.7203C33.2078 30.8427 33.269 30.9422 33.3991 30.9346C33.4986 30.9269 33.6211 30.8427 33.6287 30.7892C33.644 30.6897 33.6517 30.6591 33.6517 30.6591L33.7359 30.3376L34.0114 30.3912C34.0114 30.3912 33.9808 30.5672 33.9502 30.7586C33.9349 30.8657 33.9578 30.9652 34.065 31.0341C34.1262 31.0723 34.241 31.2025 34.8533 31.0035C35.1824 30.8963 35.19 30.8427 35.6186 30.6973C36.2538 30.483 35.9936 30.0774 36.0013 30.0621C35.9477 30.0085 35.764 29.932 35.764 29.932L35.6645 29.8784L35.8252 29.5953C35.8252 29.5953 36.162 29.8095 36.3916 29.7101C36.4451 29.6871 36.4987 29.6412 36.5293 29.5799C36.5982 29.4116 36.713 29.1743 36.713 29.1054ZM38.6187 26.4727C38.6034 26.5033 38.5728 26.5875 38.5192 26.6793C38.435 26.8324 38.3126 27.0008 38.3126 27.0008C38.3126 27.0008 38.8024 27.2457 39.1085 27.6666C39.3687 28.0187 39.5141 28.5544 39.5141 28.5544C39.5141 28.5544 39.1544 28.8682 38.7488 29.0519C38.2666 29.2738 37.685 29.358 37.685 29.358C37.685 29.358 37.7309 29.4575 37.7462 29.5187C37.7615 29.5723 37.7539 29.6565 37.7539 29.6718C37.7539 29.6947 37.7615 29.8095 37.7156 29.8095C37.3253 29.8555 37.0345 29.7942 36.8431 29.7254C37.0651 29.3503 36.9885 29.1437 37.0727 28.7381C37.0957 28.6233 37.0345 28.2177 37.0115 28.1335C36.9885 28.0569 36.935 27.7814 36.8049 27.613C36.6059 27.3605 36.3916 27.4217 36.3916 27.4217C36.3916 27.4217 36.4145 27.0008 36.3227 26.8554C36.2002 26.6564 35.741 26.2814 35.741 26.2814C35.741 26.2814 35.2283 25.7762 34.8992 25.7762C34.8456 25.7762 34.7461 25.7839 34.6313 25.7992C34.6543 25.5849 34.6772 25.2941 34.6925 25.1793C34.7767 25.2558 34.9068 25.363 35.213 25.4931C35.6645 25.6768 36.1849 25.4701 36.4834 25.5237C38.037 25.7839 38.5575 26.4727 38.6187 26.4727ZM36.537 18.6893C36.537 18.6893 36.2309 18.6051 35.6645 18.4137C35.5574 18.3755 35.5114 18.452 35.5114 18.452C35.5114 18.452 35.5038 18.452 35.4961 18.452C35.5421 20.0516 35.3125 20.5949 35.0905 20.6944C34.9987 20.7327 35.4579 20.8628 35.2206 21.4521C34.9834 22.0414 34.9374 22.1333 34.9221 22.2098C34.9145 22.2863 34.7308 22.7226 34.44 22.7914C34.3558 22.8144 34.2793 22.8374 34.2104 22.8603C34.2563 22.9598 34.4247 23.2813 34.7461 23.4649C34.7538 23.4649 34.7538 23.4726 34.7614 23.4802C34.7538 23.4649 34.7461 23.4496 34.7538 23.442C34.9068 23.0364 35.5344 22.9139 35.8099 22.9292C36.0931 22.9369 36.6518 23.067 36.9503 23.3119C37.5625 23.817 37.2334 24.7584 37.111 25.0568C37.3482 25.0874 37.8763 25.0874 38.4733 24.7277C38.4962 24.7124 38.5269 24.6971 38.5498 24.6818L38.1595 23.8935L38.5345 23.067L37.6008 22.8297L37.5549 22.7761C37.5549 22.7761 37.5855 22.7455 37.6008 22.6996C37.5931 22.7226 37.7539 22.5542 37.8151 22.4011C37.8534 22.3093 37.9069 22.1945 37.861 22.1486C37.8227 22.1103 37.7079 22.0185 37.4095 21.9955C36.9273 21.9572 36.5446 21.8884 36.5446 21.8884L36.4298 21.9037C36.4298 21.9037 36.3763 21.6358 36.3686 21.5363C36.3686 21.5593 36.3992 21.5133 36.4528 21.4904C36.6747 21.3909 37.2641 20.8398 37.2641 20.8398C37.2641 20.8398 37.0498 20.3883 36.8431 20.0362C36.5599 19.5617 36.6594 19.6918 36.3303 19.4163C36.3686 19.4622 36.537 18.6893 36.537 18.6893ZM32.3277 12.8727C32.3277 12.8727 32.519 13.0564 32.7486 13.2324C32.9323 13.3779 33.2614 13.7835 33.2614 13.7835C33.2614 13.7835 33.5905 13.4391 33.9502 13.2707C34.2257 13.1406 34.6772 13.0258 34.6772 13.0258C34.6772 13.0258 34.8303 13.087 34.8533 13.508C34.4706 13.6381 33.6976 13.9442 33.3685 14.4111L33.5751 14.7325C33.5675 14.7172 33.5751 14.6407 34.0573 14.3422C34.6313 13.9748 35.0982 13.8371 35.1288 13.8294C35.2895 13.8217 35.6109 13.7988 35.8099 13.8371C36.1926 13.9059 36.5446 14.1508 36.5446 14.1508C36.5446 14.1508 36.5064 14.5029 36.3303 14.832C36.1237 15.2223 35.764 15.5973 35.764 15.5973L36.1007 16.0489C36.1007 16.0489 35.9324 16.7912 35.1517 16.7989C35.0369 16.7989 34.1492 16.73 34.0879 16.73H34.0726C33.9731 16.6917 33.8966 16.6764 33.8966 16.6764C33.8966 16.6764 33.8583 16.2019 33.6899 15.9953C33.5216 15.7887 33.1772 15.6432 32.917 15.5514C32.6032 15.4366 32.519 15.3983 32.0521 15.1917C31.5394 14.9621 30.7893 15.184 30.4143 15.406C30.0393 15.6356 30.0164 16.0565 30.0164 16.0565C30.0164 16.0565 29.9934 16.1484 29.9857 16.2172C29.9781 16.2861 29.9781 16.3473 29.9398 16.3856C29.9016 16.4162 29.7714 16.4468 29.6107 16.4545L28.7 15.7733C28.7 15.7733 29.0061 15.8269 29.098 15.8269C29.1898 15.8269 29.5036 15.8499 29.7255 15.7274C29.9475 15.605 30.1771 15.4136 30.2613 15.2988C30.3378 15.184 30.4449 14.8856 30.4602 14.7401C30.4756 14.5947 30.4602 14.5641 30.4602 14.5335C30.4602 14.5259 30.4602 14.4952 30.4526 14.457C30.5674 14.3345 30.9118 13.9595 31.195 13.6534C31.769 13.0258 32.3277 12.8727 32.3277 12.8727ZM25.9448 8.79351C25.8529 8.88535 25.3555 9.45935 25.1565 9.6966C25.1795 9.77314 25.2101 9.84967 25.2177 9.9109C25.256 10.1099 25.455 10.2094 25.7305 10.3242C26.006 10.439 26.557 10.9135 26.6336 11.212C26.7101 11.5104 26.8326 12.0385 26.8096 12.1992C26.7866 12.36 26.7484 12.5743 26.7484 12.5743C26.7484 12.5743 27.1999 12.911 27.1846 13.3396C27.1693 13.6993 27.131 14.1432 27.0316 14.4876C27.177 14.5105 27.5137 14.5412 27.7663 14.4187C27.7816 14.2886 27.8275 14.1891 27.8887 14.0437C28.0418 13.7069 28.501 13.3166 28.8913 13.2477C29.2816 13.1789 29.8709 13.3243 30.0776 13.5156C30.1924 13.6151 30.2766 13.7758 30.3301 13.9289C30.3454 13.9059 30.6057 13.5998 31.149 13.1636C31.2409 12.8651 31.348 12.4059 31.2256 12.2834C31.1873 12.2452 30.8659 11.939 30.8659 11.939L30.8353 11.8319C30.8353 11.8319 31.2792 11.5564 31.5394 11.0436C31.7766 10.5844 31.8378 9.89559 31.8378 9.89559C31.8378 9.89559 31.4169 9.75018 30.9501 9.77314C30.5597 9.7961 30.1312 9.88794 29.8862 9.94916C29.7179 10.3624 29.2816 11.365 28.7536 11.6635L28.4551 11.4263C28.4704 11.4339 28.5393 11.4339 28.8913 10.9824C29.2128 10.5691 29.4347 10.0487 29.5265 9.80375C29.5265 9.73487 29.5265 9.65834 29.4577 9.63538C29.3811 9.61242 29.3505 9.58946 29.2434 9.58946C29.1362 9.58946 29.0826 9.58946 29.0138 9.59711C28.9372 9.60476 28.2025 9.98743 28.0648 10.0487C27.927 10.1099 27.4984 10.3318 27.4448 10.3777C27.3913 10.4237 27.2841 10.5385 27.2841 10.5385C27.2841 10.5385 27.2152 10.5691 27.1081 10.5155C27.0009 10.4543 26.9091 10.3931 26.8938 10.3624C26.8708 10.3318 26.8632 10.3318 26.8632 10.2476C26.8632 10.1635 26.8785 9.89559 26.9091 9.78844C26.9397 9.6813 26.9397 9.59711 26.955 9.40578C26.9703 9.21444 26.9091 9.09964 26.9014 9.01546C26.8938 8.93892 26.8326 8.77055 26.8096 8.80116C26.8402 8.7629 26.381 8.78586 26.1361 8.78586C26.0902 8.79351 25.9984 8.79351 25.9448 8.79351ZM19.8374 8.24247C19.9599 7.6149 20.1359 7.59194 20.1512 7.59194C20.3043 7.54602 20.9625 7.8445 20.9625 7.8445L21.0237 7.56898C21.0237 7.56898 20.8553 7.23988 20.8017 6.93375C20.7405 6.60466 20.8017 6.29852 20.8017 6.29852L21.3757 6.50517L21.6436 6.61997C21.6436 6.61997 21.8579 6.16842 21.8809 6.1225C22.0875 5.60973 22.7916 5.05869 22.7916 5.05869C22.7916 5.05869 23.1437 5.29594 23.4345 5.58677C23.5569 5.71687 23.6641 5.83167 23.7559 5.93117C22.6539 6.48221 22.1793 7.67612 22.1793 7.67612L22.7151 7.79092C22.96 6.8266 23.9473 6.36741 24.0774 6.31383C24.0774 6.31383 24.3835 6.25261 24.6054 6.2373C24.7279 6.22965 24.8504 6.22965 24.9039 6.22965C24.9652 6.22965 25.1259 6.22199 25.1259 6.22199C25.1259 6.22199 25.1335 6.78068 25.0264 7.14039C24.9958 7.23223 24.9805 7.41591 25.0187 7.5154C25.034 7.56898 25.1182 7.6302 25.1182 7.6302C25.1182 7.6302 25.5621 8.12767 25.5927 8.1889C25.608 8.21951 25.6616 8.28839 25.6616 8.34196C25.6616 8.40319 25.6004 8.45676 25.5927 8.48738C25.5851 8.5333 25.1106 9.09199 24.9499 9.26802C24.9345 9.24506 24.9116 9.21444 24.8963 9.19148C24.7202 8.97719 24.2075 8.97719 23.6335 8.95423C23.0595 8.93127 22.7457 9.22975 22.7457 9.22975C22.7457 9.22975 22.6385 9.29098 22.5467 9.2374C21.4523 8.54095 20.5951 8.69402 19.9828 9.04607C19.891 8.87004 19.7762 8.54095 19.8374 8.24247ZM9.70442 15.0004C9.66615 14.9544 9.55901 14.8626 9.55901 14.8626C9.55901 14.8626 9.65085 14.7325 9.70442 14.6866C9.75799 14.6407 9.95698 14.4417 9.95698 14.4417C9.95698 14.4417 9.39063 14.059 9.16103 13.5003C8.93143 12.9416 8.93143 12.6661 8.93143 12.5513C8.93143 12.4288 8.91613 12.36 8.93143 12.337C8.91613 12.3676 9.55901 11.8472 11.0591 12.3829C11.0667 12.3829 11.0744 12.3906 11.082 12.3906C11.1432 12.513 11.2198 12.6661 11.281 12.8574C11.4035 13.2248 11.48 13.7605 11.48 13.7605L11.832 13.7988C11.832 13.7988 11.7249 13.286 11.5795 12.8192C11.5183 12.6278 11.4494 12.4518 11.3882 12.3064C11.4188 12.2681 11.457 12.2299 11.4953 12.1916C11.6024 12.0921 11.7402 12.0538 11.7402 12.0538C11.7402 12.0538 12.3219 12.3753 12.4367 12.5589C12.628 12.8804 12.8193 12.888 12.8193 12.888C12.8193 12.888 12.8652 12.8804 13.003 12.5896C13.1561 12.2681 13.1178 12.1763 13.5005 12.2069C13.7224 12.2222 15.4903 11.8089 15.0694 11.5793C15.0158 11.564 14.5107 11.3344 14.1127 10.9747C13.6688 10.5767 13.4086 9.97978 13.4086 9.97978C13.4086 9.97978 13.8143 9.65068 13.9444 9.55119C14.4495 9.16852 15.9725 9.32159 15.9725 9.32159C15.9725 9.32159 15.8118 8.59452 16.0414 8.25012C16.0643 8.21951 16.0873 8.19655 16.0873 8.19655C16.0873 8.19655 16.3628 8.13532 16.6919 8.3037C16.8756 8.39554 17.3424 8.7629 17.4802 8.88535C17.7251 9.09964 17.9624 9.49762 17.9547 9.48231C17.9777 9.50527 18.0848 9.48231 18.0848 9.48231C18.0848 9.48231 18.1996 7.56898 19.1486 8.64044C19.1639 8.6634 19.317 8.77055 19.4318 8.91596C19.5236 9.03076 19.6078 9.14556 19.6614 9.22975C19.1639 9.61242 18.9037 10.0869 18.9037 10.0869C18.9037 10.0869 18.3374 11.0819 18.2226 11.3574C18.0236 11.8166 18.5057 12.4365 18.5057 12.4365C18.5057 12.4365 18.1613 12.4288 17.9471 12.8804C17.8323 13.1329 17.8629 13.4544 17.8858 13.6763C17.7634 13.6687 17.5491 13.6534 17.5108 13.6457C17.419 13.6228 17.3654 13.5845 17.3348 13.5615C17.3042 13.5386 17.2506 13.2554 16.998 12.9799C16.7684 12.7273 16.3628 12.5743 16.1409 12.536C15.7123 12.4671 15.498 12.5513 15.2225 12.7273C14.9393 12.9033 14.7174 13.3855 14.702 13.6457C14.6791 13.9059 14.748 14.3116 14.8857 14.4952C15.0235 14.6789 15.1919 14.8243 15.4291 14.9391C15.6664 15.0616 15.9266 15.1228 15.9266 15.1228L15.5669 15.4825C15.5363 15.4213 15.4674 15.3218 15.322 15.1075C14.9776 14.61 14.1663 14.3881 13.6918 14.3804C13.2173 14.3804 12.9647 14.7555 12.9647 14.7555C12.9647 14.7555 12.8959 14.8243 12.8499 14.8856C12.804 14.9468 12.7658 15.0004 12.7122 15.008C12.651 15.0233 12.4902 14.9621 12.3219 14.8549C12.1535 14.7478 11.878 14.7172 11.4188 14.7478C11.0055 14.7708 10.5386 15.207 10.2478 15.4519C10.1024 15.3371 9.73503 15.0386 9.70442 15.0004ZM16.4393 15.2223C16.1944 15.4213 15.9419 15.6892 15.8271 15.8269C15.8577 15.8575 15.8883 15.8958 15.9342 15.9494C16.0949 16.1484 16.2786 16.4086 16.3552 16.6535C16.5312 16.4928 16.7684 16.2938 17.021 16.1331C17.5644 15.7887 18.2379 15.5591 18.4139 15.5055C18.3297 15.2835 18.2149 15.0539 18.146 14.9315C18.0695 14.7861 17.97 14.2886 17.9394 14.0284C17.8858 14.036 17.7787 14.0437 17.7175 14.0437C17.6256 14.0437 17.4496 14.0667 17.419 14.0973C17.3424 14.1738 17.2506 14.2656 17.1664 14.5259C17.1128 14.7019 16.8756 14.8856 16.8756 14.8856C16.8756 14.8856 16.6536 15.0463 16.4393 15.2223ZM15.9801 14.7401C17.1205 14.656 16.9674 13.684 16.9674 13.684C16.9674 13.684 16.9521 13.6457 16.9445 13.6228C16.9139 13.5462 16.8526 13.4008 16.8144 13.3549C15.9113 12.138 14.5872 13.4927 15.2684 14.3575C15.3526 14.4646 15.8118 14.7555 15.9801 14.7401ZM7.1176 26.0441C6.98749 25.9752 6.83442 25.8757 6.75024 25.7456C6.68901 25.6538 6.51298 25.3094 6.50533 25.2788C6.49768 25.2482 6.43645 25.2864 6.35992 25.2941C6.28338 25.3017 6.02317 25.3017 5.83184 25.3094C5.6405 25.317 5.0512 25.0492 5.0512 25.0492C5.0512 25.0492 4.95936 24.6818 5.11242 24.2915C5.28845 23.8246 5.8548 23.3884 5.8548 23.3884C5.8548 23.3884 5.64816 23.1741 5.50274 22.9598C5.37264 22.7685 5.2961 22.5236 5.2961 22.5236C5.2961 22.5236 5.56397 22.3858 5.79357 22.2863C6.0997 22.1486 6.35226 22.0873 6.35226 22.0873C6.35226 22.0873 6.26808 21.6817 6.65074 21.4521C7.2477 21.0924 8.1661 21.2455 8.1661 21.2455L8.27325 20.8781C8.27325 20.8781 8.06661 20.8016 8.04365 20.7939C8.00538 20.7863 7.72986 20.5949 7.62271 20.5108C7.51557 20.4266 7.39311 20.1664 7.35485 20.0745C7.31658 19.9827 7.19413 19.776 7.19413 19.776C7.19413 19.776 7.31658 19.6918 7.44669 19.6306C7.58445 19.5694 7.73751 19.5235 7.76047 19.5235C7.79874 19.5235 7.75282 19.5082 7.74517 19.4852C7.73751 19.4622 7.66098 19.4316 7.5921 19.3628C6.87269 18.7199 6.53594 17.8933 6.53594 17.8933C6.53594 17.8933 6.79616 17.5183 7.21709 17.3346C7.67629 17.1356 8.30386 17.128 8.30386 17.128C8.30386 17.128 8.38039 16.9213 8.40335 16.6611C8.41101 16.6152 8.44927 16.5081 8.47989 16.5081C8.49519 16.5081 8.69418 16.4775 8.88551 16.4928C9.02327 16.5004 9.26818 16.5387 9.41359 16.5616C9.40594 16.5769 9.39829 16.5923 9.39063 16.5999C9.25287 16.9137 9.44421 16.9826 9.06154 17.4953C8.69418 18.0005 8.65591 17.855 8.42631 18.6357C8.33447 18.9418 8.41866 19.2403 8.47989 19.5235C8.60234 20.1357 9.19165 20.4954 9.19165 20.4954C9.19165 20.4954 9.07685 20.97 9.30645 21.2837C9.63554 21.7353 10.2095 21.8348 10.1866 21.8807C10.1713 21.9037 10.1942 22.0797 10.2708 22.3016C10.2095 22.3552 9.92637 22.5695 9.83453 22.6154C9.71973 22.6613 9.5437 22.692 9.39829 22.692C9.25287 22.692 9.16103 22.6843 9.04623 22.6384C8.93143 22.5925 8.64061 22.5006 8.33447 22.5006C8.02834 22.5006 7.67629 22.7149 7.32423 23.0746C6.97218 23.4267 7.07167 23.9777 7.12525 24.1461C7.17882 24.3068 7.43138 24.7048 7.95946 24.766C7.85231 24.8578 7.76047 24.9497 7.76047 24.9497L7.4773 25.3936C7.48495 25.4012 7.2324 25.7992 7.1176 26.0441ZM10.2325 23.0823C10.2861 23.0823 10.355 23.1588 10.355 23.1588C10.355 23.1588 10.2937 23.3501 10.2555 23.4496C10.2172 23.5491 9.96463 23.9777 9.96463 24.2073V24.7813C10.0565 24.743 10.1789 24.7048 10.3396 24.7124C10.4162 24.7124 10.4927 24.7201 10.5616 24.7201C10.5999 24.4522 10.7223 23.5721 10.9366 23.1435C10.9136 23.1358 10.8983 23.1282 10.8754 23.1129C10.6764 23.0057 10.5386 22.845 10.4315 22.669C10.309 22.7455 10.0718 22.868 9.82687 22.9445C9.40594 23.0746 8.9697 23.0976 8.9697 23.0976C8.9697 23.0976 9.04623 23.3961 9.23757 23.3961C9.4289 23.3961 9.73503 23.2353 9.85749 23.1818C9.97229 23.1435 10.1789 23.0823 10.2325 23.0823ZM8.61765 23.2736C8.57173 22.9445 8.66357 22.7761 8.66357 22.7761C8.66357 22.7761 7.62271 22.7455 7.40077 23.5874C7.34719 23.794 7.50792 24.3451 7.82935 24.4216C8.02069 24.4675 8.43397 24.5823 8.76306 24.1767C8.98501 23.9012 9.09981 23.6486 9.09981 23.6486C9.09981 23.6486 8.66357 23.6027 8.61765 23.2736ZM9.05389 24.4522C9.03093 24.4752 8.99266 24.4981 8.96205 24.5211C9.14573 24.5288 9.39829 24.5441 9.60493 24.8043C9.60493 24.5976 9.60493 24.2762 9.63554 24.1614C9.68146 23.9854 9.68911 23.9241 9.74269 23.8246C9.79626 23.7252 9.83453 23.6563 9.84218 23.618C9.84983 23.5874 9.84983 23.4726 9.84983 23.4726C9.84983 23.4726 9.73503 23.5109 9.62023 23.5721C9.49778 23.6333 9.42125 23.7787 9.41359 23.8323C9.41359 23.8859 9.21461 24.3374 9.05389 24.4522ZM8.67122 31.9907C8.24263 31.9907 7.89823 31.6617 7.89823 31.256C7.89823 30.8504 8.24263 30.5213 8.67122 30.5213C9.09981 30.5213 9.44421 30.8504 9.44421 31.256C9.44421 31.6617 9.09981 31.9907 8.67122 31.9907ZM10.3779 32.4499C10.8524 32.2203 10.7682 32.1744 10.7376 31.8913C10.6764 31.3402 10.5769 30.33 10.5692 30.2534C10.4162 30.2994 10.2631 30.33 10.2248 30.33C10.0106 30.3453 9.5437 30.2687 9.44421 30.2687C9.37533 30.2687 9.16869 30.2687 9.00031 30.2687C9.44421 30.3989 9.7733 30.7892 9.7733 31.2637C9.7733 31.5928 9.60493 31.8913 9.35237 32.0826C9.36767 32.0902 9.39829 32.1132 9.42125 32.1744C9.51309 32.3811 9.68911 32.5265 9.95698 32.5265C10.0947 32.5112 10.2555 32.5112 10.3779 32.4499ZM11.9162 26.8401C11.8703 26.9089 11.3652 27.0697 11.3652 27.0697L11.4494 27.3681L11.9928 27.2074C11.9928 27.2074 12.1305 27.3069 12.1382 27.5059C12.1382 27.7431 12.0081 28.0875 12.0081 28.0875C12.0081 28.0875 11.9392 28.3784 11.9162 28.4702C11.8933 28.5621 11.8091 28.8758 11.6637 29.0595C11.5106 29.2432 11.4876 29.358 11.3499 29.3963C11.2504 29.4192 11.0973 29.3733 11.0744 29.3197C11.0284 29.2202 11.0131 29.1973 11.0131 29.1973L10.8295 28.8988L10.5692 29.0366C10.5692 29.0366 10.6611 29.2049 10.7453 29.3886C10.7912 29.4958 10.7988 29.5953 10.7147 29.7024C10.6687 29.7636 10.5846 29.932 9.90341 29.9167C9.5437 29.909 9.51309 29.8631 9.03858 29.8478C8.33447 29.8249 8.46458 29.335 8.45693 29.3274C8.49519 29.2585 8.66357 29.1207 8.66357 29.1207L8.74775 29.0366L8.50285 28.8299C8.50285 28.8299 8.23498 29.1514 7.96711 29.1207C7.90589 29.1131 7.83701 29.0825 7.78343 29.0289C7.65333 28.8911 7.50792 28.6386 7.48495 28.5697C7.462 28.5008 7.25536 28.0875 7.21709 27.8197C7.18648 27.5518 7.17117 27.2151 7.26301 27.1538C7.35485 27.1003 7.99773 27.261 7.99773 27.261L8.08957 26.9013C8.08957 26.9013 7.66863 26.7865 7.57679 26.5798C7.48495 26.3732 7.42373 26.2814 7.53087 26.1053C8.01303 25.3017 7.99773 25.0721 8.57173 24.8808C8.83194 24.7966 9.00797 24.8732 9.19165 24.9191C9.37533 24.965 9.51309 25.1104 9.55901 25.2864C9.60493 25.4625 9.57431 25.7992 9.57431 25.7992L9.88045 25.8298C9.88045 25.8298 9.88045 25.7916 9.89575 25.5543C9.91106 25.3094 9.93402 25.3247 10.0259 25.2099C10.1177 25.0951 10.4315 25.0492 10.5999 25.1181C10.7759 25.1869 10.9749 25.1028 10.9978 25.3477C11.0208 25.5926 11.082 25.7686 11.2427 25.8451C11.4035 25.9293 11.7708 26.0441 11.8167 26.2048C11.8703 26.3656 11.9622 26.7712 11.9162 26.8401ZM11.3728 25.3247L12.2071 23.3884C12.0004 23.4037 11.7249 23.4037 11.6024 23.3501C11.48 23.3042 11.4188 23.266 11.3652 23.2506C11.281 23.4267 11.1586 23.7098 11.082 24.0313C10.9902 24.4216 10.9596 24.6589 10.9519 24.7584C11.0208 24.7813 11.0744 24.8043 11.1126 24.8425C11.2198 24.9726 11.3346 25.1334 11.3575 25.2558C11.3575 25.2864 11.3652 25.3094 11.3728 25.3247ZM16.3322 19.7531C16.5848 19.401 16.3552 18.9724 16.3552 18.9724C16.3552 18.9724 16.271 18.6357 16.0643 18.1535C15.8577 17.6714 15.7505 17.8857 15.7505 17.8857L15.1077 18.1765L14.8628 17.8015C14.8628 17.8015 15.5056 17.5948 15.8271 17.3117C16.1485 17.0285 15.8883 16.554 15.7199 16.4009C15.5516 16.2479 15.2684 15.9341 15.1842 15.6662C15.1 15.3983 14.725 14.9697 14.128 14.8243C13.401 14.6483 12.9954 15.3907 12.9954 15.3907L13.0719 16.0565L12.5821 16.1713C12.5821 16.1713 12.5285 15.2835 11.8856 15.1764C11.6866 15.1458 11.6484 15.1152 11.258 15.1687C10.8754 15.2223 10.4774 15.7351 10.4774 15.7351C10.4774 15.7351 10.0565 16.1484 9.86514 16.4545C9.67381 16.7606 9.7733 17.0974 9.8881 17.1433C10.0029 17.1892 10.6305 17.4724 10.6305 17.4724L10.4851 17.9086L9.94167 17.7096C9.94167 17.7096 9.63554 17.4953 9.4289 17.7709C8.84725 18.5515 8.74775 18.8653 8.98501 19.6C9.12277 20.0286 9.62023 20.2888 9.62023 20.2888C9.62023 20.2888 9.58962 20.396 9.60493 20.6026C9.61258 20.8092 9.63554 21.1383 10.0794 21.3373C10.4468 21.5057 10.8601 20.9164 10.8601 20.9164L11.2351 21.3297C11.1203 21.4598 10.7682 21.7047 10.7682 22.1945C10.7682 22.5618 11.4341 22.8527 11.5795 22.8833C11.7249 22.9139 12.0693 22.8603 12.3678 22.868C12.6663 22.8756 12.8959 22.9292 13.3168 22.9904C13.7377 23.044 13.9826 22.8068 14.0821 22.669C14.0132 22.7685 14.1816 22.5618 14.5031 22.3016C14.7327 22.118 14.4495 21.7429 14.4495 21.7429L13.7224 21.2072L13.9673 20.8552C13.9673 20.8552 14.3729 21.1766 14.6714 21.3679C14.9776 21.5516 15.0082 21.4215 15.2301 21.299C15.4597 21.1766 15.674 20.8628 15.8118 20.6103C15.9801 20.373 16.0796 20.1051 16.3322 19.7531ZM19.0032 17.4724C18.2685 18.7275 17.9317 17.4724 18.0236 17.8321C17.9853 17.6714 17.7787 17.3805 17.7175 17.5107C17.4879 17.9852 17.044 18.2989 16.7378 18.475C16.7072 18.3831 16.6689 18.2989 16.646 18.2224C16.5159 17.8551 16.1944 17.5336 16.1944 17.5336C16.1944 17.5336 16.2786 17.3576 16.3399 17.1663C16.5312 16.9826 17.5185 16.0795 18.5134 15.9188C18.5211 15.9188 18.5287 15.9111 18.5364 15.9111C18.6588 16.179 19.0415 16.5387 19.1639 16.6535C19.2099 16.6994 19.2634 16.73 19.3247 16.753C19.2711 16.8907 19.0874 17.3193 19.0032 17.4724ZM21.414 17.6484C22.21 17.7403 22.2941 17.6867 22.9141 17.6943C24.0774 17.7173 24.2075 17.4647 24.2917 17.3652C24.4447 17.1969 24.5289 17.0361 24.4753 16.8601C24.3605 16.5004 23.9932 15.9876 23.9932 15.9876L24.3835 15.7504L24.6973 16.2632C24.6973 16.2632 24.8963 16.6382 24.9728 16.7759C25.08 16.9596 25.7228 16.7606 25.9907 16.2632C26.182 15.9111 26.3963 15.3601 26.4346 15.1993C26.5111 14.8932 26.7025 14.3881 26.8249 13.6228C26.9244 12.9569 26.4193 13.0488 26.4193 13.0488L25.5545 13.3243L25.4167 12.8115C25.4167 12.8115 26.1514 12.6431 26.3504 12.3676C26.5647 12.0768 26.2815 11.7171 26.205 11.3344C26.1514 11.0512 25.5851 10.7757 25.3096 10.638C25.034 10.5002 24.8657 10.2017 24.8274 9.78844C24.7891 9.37516 24.4983 9.39812 24.1386 9.3369C23.8248 9.28332 23.2891 9.29098 23.136 9.48231C22.9753 9.6813 23.0059 9.65834 22.9906 10.0716C22.9676 10.4849 22.9983 10.8599 22.9983 10.8599H22.562C22.562 10.8599 22.4855 10.0946 22.4013 9.7961C22.3248 9.49762 22.0492 9.32159 21.7278 9.24506C21.414 9.16852 21.1002 9.13026 20.6487 9.2221C19.6844 9.42874 19.6231 9.88794 18.7736 11.1737C18.5823 11.4645 18.6971 11.6252 18.8501 11.9849C19.0032 12.337 19.8145 12.536 19.8145 12.536L19.6461 13.0564C19.6461 13.0564 19.34 12.9416 19.0109 12.8727C18.567 12.7809 18.1001 12.9187 18.3144 14.0896C18.3986 14.5412 18.7047 15.2529 18.7507 15.3677C18.7889 15.4825 19.0338 16.0183 19.2864 16.2172C19.6231 16.4851 19.9446 16.355 20.1742 16.1713C20.3808 16.0106 20.5415 15.8346 20.5415 15.8346L20.8477 16.0948L20.7099 16.2325C20.7099 16.2325 20.4727 16.4468 20.4114 16.5616C20.3961 16.6229 20.0517 17.4953 21.414 17.6484ZM26.5494 27.8962C26.5035 27.9421 26.3581 28.0646 26.0978 27.9804C25.8682 27.9039 25.8759 27.7202 25.8989 27.5748C25.9142 27.46 25.9984 27.4141 26.0749 27.3834C26.1055 27.3834 26.1361 27.3758 26.1744 27.3758C26.2126 27.3758 26.2586 27.3758 26.3045 27.3758C26.3963 27.3911 26.5877 27.4294 26.6336 27.4906C26.7101 27.5748 26.603 27.8426 26.5494 27.8962ZM32.6414 63.224C32.519 63.2316 32.4272 63.2469 32.3659 63.2546V60.706H32.0215L32.0062 63.7674C31.9373 63.7827 31.8149 63.8056 31.6542 63.8286L31.6618 60.706H31.3174L31.3021 63.8592C31.1873 63.8669 31.0725 63.8669 30.9501 63.8592V60.706H30.6057L30.5904 63.8286C30.4526 63.8133 30.3225 63.798 30.2153 63.775V60.6984H29.8709L29.8556 63.6985C29.6107 63.6373 29.4806 63.576 29.4806 63.576V60.1167C30.1235 60.2162 31.0189 60.2315 31.8149 60.178C32.0904 60.155 32.2435 60.1014 32.2894 60.0249C32.3353 59.9484 32.343 59.7647 32.343 59.7647C32.343 59.7647 32.6644 59.7723 32.8634 59.7723C32.8634 60.1014 32.8787 61.7852 32.8787 62.7648C32.894 63.002 32.9017 63.201 32.6414 63.224ZM32.3277 33.5673C32.8328 34.4169 33.4068 35.8404 33.2001 37.6695C32.9629 37.4552 32.6644 37.2103 32.3124 36.9425L32.3277 33.5673ZM31.2868 32.3122C31.4705 32.4959 31.6236 32.6566 31.7154 32.7408C31.769 32.7867 31.8455 32.8785 31.9373 32.9933C31.9373 33.7434 31.9526 36.1465 31.9526 36.6669C31.7154 36.4909 31.4781 36.3225 31.2562 36.1618V33.6286L31.2868 32.3122ZM30.3225 31.2943C30.5062 31.4933 30.7052 31.7076 30.8965 31.9142C30.8965 32.3581 30.9041 35.848 30.9041 35.9169C30.6975 35.7715 30.5138 35.6414 30.3378 35.5189C30.3378 35.1133 30.3454 33.7281 30.3454 33.5367C30.3454 33.3148 30.3225 31.8836 30.3225 31.7152C30.3148 31.6157 30.3148 31.4244 30.3225 31.2943ZM29.5265 30.2075C29.649 30.4524 29.7638 30.6514 29.848 30.7509C29.8709 30.7815 29.9016 30.8121 29.9245 30.8427C29.9245 31.2866 29.9398 32.9321 29.9475 32.9933C29.9551 33.0622 29.9704 35.2358 29.9704 35.2358L30.0393 35.3123C29.8403 35.1745 29.6643 35.0597 29.5189 34.9602C29.5265 34.3021 29.5342 32.7943 29.5495 32.6107C29.5725 32.404 29.5342 30.5596 29.5265 30.2075ZM31.2562 36.6899C30.3072 35.9781 29.5418 35.3735 29.1056 35.1669C28.7689 35.0062 28.7918 35.1898 28.7918 35.3888C28.7918 35.496 28.7918 35.6261 28.7918 35.7638L32.4195 38.4655L32.2205 38.8022L28.7918 36.2307C28.7918 36.82 28.7842 37.5164 28.7842 38.0828L31.4552 39.9961L31.2945 40.2487L28.7765 38.5114C28.7765 38.9247 28.7689 39.2078 28.7689 39.2078L33.3838 42.361C33.3838 42.361 33.4527 41.6569 33.491 40.8533L29.0597 37.6848L29.2357 37.3863L33.5139 40.4171C33.5216 40.3252 33.5216 40.2257 33.5216 40.1339C33.5445 39.2767 33.5445 38.6262 33.5445 38.6262C33.5445 38.6262 32.5496 37.6542 31.2562 36.6899ZM32.894 42.56L32.8634 57.859C32.7562 57.8896 32.5726 57.9432 32.32 57.9891L32.343 42.1697C32.5573 42.3151 32.7409 42.4528 32.894 42.56ZM31.2945 52.1726L31.2638 41.4196C31.5088 41.588 31.746 41.7487 31.9756 41.9095L31.945 58.0503C31.746 58.0809 31.5164 58.1039 31.2638 58.1192L31.2868 54.4839C31.394 54.3691 31.4781 54.216 31.5241 54.0017C31.6695 53.267 31.394 52.4404 31.2945 52.1726ZM30.9424 41.1977L30.9194 51.4991C30.7587 51.2924 30.5597 51.1011 30.3454 50.9174L30.3378 40.8074C30.5368 40.9375 30.7434 41.0676 30.9424 41.1977ZM29.9704 40.5854L29.9628 50.6266C29.7791 50.4965 29.6031 50.3817 29.427 50.2822L29.4041 40.2487C29.5878 40.3482 29.7714 40.463 29.9704 40.5854ZM15.9955 29.5646V34.5623C16.0796 34.524 16.7302 34.2638 16.7455 35.2281C16.7684 36.7664 16.822 39.5828 16.822 39.5828C16.822 39.5828 16.5082 39.7512 16.0337 40.0267V42.1391C16.2863 42.4375 17.2123 43.5243 17.3807 43.7156C18.6052 45.0397 19.9293 45.6519 20.0823 45.7208C20.3579 45.5677 20.6563 45.6213 20.9089 45.828C21.2533 46.1035 21.6972 46.4632 21.9038 46.6239C21.9497 46.5627 22.1411 46.4249 22.8375 46.3637C23.3044 46.3178 23.4575 46.5091 23.4957 46.555C23.5799 46.4938 23.733 46.3943 23.7712 46.356C23.8325 46.2948 24.3758 45.9045 24.3988 45.8892C24.3529 45.9198 24.881 45.5065 25.2177 45.7974C25.2483 45.828 25.3555 45.8968 25.4473 45.9657C25.7228 45.7361 26.4882 45.1086 26.7025 44.8943C26.9627 44.634 27.927 43.5626 27.9576 43.5396C27.9882 43.5167 28.7995 42.583 29.0214 42.3304V40.0267C28.6005 39.7818 28.3403 39.6364 28.3403 39.6364C28.3403 39.6364 28.4015 36.5368 28.4015 35.2051C28.4015 34.3862 28.9832 34.6311 28.9832 34.6311C28.9832 34.6311 29.0061 34.6465 29.052 34.6771L29.0291 29.2126C28.9985 29.1437 28.9678 29.0825 28.9296 29.0136C28.9372 29.2585 28.9449 29.5493 28.9449 29.8861C28.9449 30.3223 28.899 30.8427 28.8454 31.1412C28.1413 35.0597 25.7305 37.371 24.7509 37.991C24.0238 38.4502 23.3886 38.6798 22.7533 38.7333C22.6845 38.741 22.6156 38.741 22.5391 38.741V38.5879L22.5314 38.741C22.4625 38.741 22.3936 38.7333 22.3171 38.7333C21.6742 38.6798 21.039 38.4502 20.3196 37.991C19.34 37.371 16.9292 35.0521 16.2251 31.1412C16.1715 30.8427 16.1256 30.3223 16.1256 29.8861C16.1256 29.7024 16.1256 29.5417 16.1256 29.4116C16.0873 29.4498 16.0414 29.5111 15.9955 29.5646ZM28.1183 52.295C28.1566 52.3409 28.3938 52.4557 28.6081 52.494C28.6234 52.494 28.7995 52.5399 29.0214 52.6165V53.0986C28.7842 53.0221 27.3683 52.5246 26.1438 51.721C24.8657 50.8792 23.7177 49.7388 23.4651 49.4786C23.4345 49.3408 23.4115 49.226 23.3962 49.1342C23.8095 48.9735 25.0187 49.7312 25.432 49.7924C25.7381 49.8383 25.9371 49.6011 26.0519 49.2796C26.1973 49.3638 26.5724 49.5857 26.9397 49.8383C27.3836 50.1444 27.8045 50.4965 27.8045 50.4965L28.0571 50.1597C28.0571 50.1597 27.6056 49.8077 27.1157 49.5016C26.7178 49.2413 26.2968 49.0117 26.1438 48.9276C26.1744 48.7439 26.1744 48.5679 26.1667 48.4071C26.955 48.4913 27.8581 48.7821 27.8581 48.7821L28.1183 48.2847C28.1183 48.2847 27.4984 48.0857 26.9397 48.0092C26.5953 47.9632 26.2509 47.9556 26.0443 47.9556C25.983 47.8255 25.8912 47.6571 25.8606 47.6265C25.807 47.5806 25.7917 47.5423 25.6999 47.5193C25.608 47.4964 25.5468 47.4581 25.5468 47.4581C25.5468 47.4581 25.6386 47.3357 25.6999 47.1749C25.7075 47.1673 25.7075 47.152 25.7075 47.1443C25.9448 47.0602 26.6336 46.8229 27.3683 46.5244C28.0571 46.2489 28.5393 45.9428 28.5393 45.9428L28.4092 45.4453C28.4092 45.4453 27.9653 45.7285 27.2688 46.0729C26.7101 46.3407 26.0596 46.601 25.7611 46.7081C25.7611 46.5397 25.7381 46.4249 25.7152 46.3254C25.9754 46.0882 26.6565 45.4376 27.353 44.7412C28.0877 44.0065 28.8071 43.2258 29.0214 43.0039V50.0679C28.7 49.8995 28.4704 49.8 28.4704 49.8C28.4704 49.8 27.8887 50.4888 27.9423 51.5373C27.9653 51.9583 28.0801 52.2415 28.1183 52.295ZM24.5825 51.568C25.1335 52.0042 25.7381 52.4098 25.7381 52.4098L25.5009 52.7007C25.5009 52.7007 25.2789 52.6012 24.46 51.9736C24.3682 51.9047 24.2687 51.8052 24.1922 51.7516C24.1539 51.7287 24.0544 51.6368 23.9626 51.5527C24.0161 51.744 24.0697 51.9353 24.1309 52.1267C24.9728 52.9226 25.83 53.4889 26.58 53.8793C27.7357 54.4762 28.7 54.6829 29.0291 54.7364V53.4966C28.7536 53.4048 27.3224 52.9149 26.0978 52.1343C24.9422 51.3919 23.9396 50.4429 23.5952 50.1062C23.6488 50.3358 23.7024 50.5883 23.7712 50.8562C23.9013 50.971 24.2304 51.2848 24.5825 51.568ZM16.1179 49.6623C16.1179 49.6623 16.0873 49.6776 16.0261 49.7005L16.0337 42.8202C16.2021 43.0039 16.5618 43.4095 16.6383 43.5014C16.6843 43.5549 17.4037 44.3738 18.169 44.9938C18.8195 45.5142 19.493 45.8968 19.7532 46.0423C19.7226 46.0882 19.692 46.1264 19.6691 46.18C19.4395 46.0958 18.9496 45.9045 18.4904 45.6902C17.8476 45.3917 17.2123 45.0244 17.2123 45.0244L16.9904 45.4606C16.9904 45.4606 17.5873 45.782 18.2455 46.0652C18.72 46.2719 19.2175 46.4632 19.4777 46.5627C19.4471 46.6316 19.4165 46.7004 19.3935 46.7693C19.3553 46.9224 19.3706 47.0372 19.4777 47.0755C19.5849 47.1137 19.6844 47.1443 19.6844 47.1443L19.692 47.1596C19.692 47.1596 19.0874 47.1061 18.9879 47.8867C18.8042 47.9326 18.4292 48.0245 18.0925 48.0627C17.5491 48.124 16.9674 48.101 16.9674 48.101L17.0133 48.5832C17.0133 48.5832 17.5644 48.5755 18.0695 48.5066C18.4139 48.4607 18.7889 48.3842 18.9649 48.3459C18.9649 48.3689 18.9649 48.3918 18.9649 48.3995C19.0185 49.073 19.2175 49.3638 19.4395 49.4786C19.2711 49.5934 19.0644 49.7235 18.8119 49.8842C18.0542 50.3664 17.2123 50.7261 17.2123 50.7261C17.2123 50.7261 17.2812 50.8485 17.3577 51.0246C17.419 51.1776 17.4419 51.2389 17.4419 51.2389C17.4419 51.2389 18.3221 50.9021 19.0874 50.3511C20.1818 49.5628 20.2124 49.624 20.6028 49.1572V49.1495C20.7252 49.0806 20.84 49.0194 20.9089 48.9888C21.1079 48.8893 21.4905 48.8816 21.5671 48.8816C21.5824 48.8816 21.6053 48.8816 21.6283 48.8816C21.5977 49.0347 21.5135 49.4556 21.4064 50.0067C21.0773 50.3128 20.1129 51.1547 18.8195 51.8664C17.4572 52.6088 16.3169 52.8996 15.9878 52.9762C15.9955 52.7389 15.9955 52.517 16.0031 52.3716C16.2097 52.3256 16.4317 52.2261 16.47 52.1802C16.5082 52.1343 16.623 51.8435 16.646 51.3996C16.6996 50.3511 16.1179 49.6623 16.1179 49.6623ZM20.9625 48.6061C20.6028 48.7439 20.2507 48.9888 19.9981 49.0959C19.7303 49.2107 19.4701 49.226 19.3706 48.6138C19.1716 47.3586 19.8833 47.4887 19.8833 47.4887C19.9828 47.4811 20.266 47.55 20.266 47.55L20.3808 47.2209C20.3808 47.2209 20.2124 47.1367 20.0747 47.0602C19.9293 46.976 19.8298 46.8688 19.8604 46.9071C19.914 46.9607 19.6078 46.8382 20.1283 46.18C20.3579 45.8815 20.7329 46.2259 21.1921 46.5856C21.2839 46.6545 21.8885 47.152 22.1334 47.3586C22.1487 47.4658 22.1564 47.5806 22.1411 47.6954C22.1105 48.0015 21.9727 48.2847 21.8503 48.4837C21.789 48.476 21.3834 48.4454 20.9625 48.6061ZM22.4396 47.8638C22.3783 48.3612 22.1334 48.7362 22.1334 48.7362C22.1334 48.7362 22.4702 48.851 22.7687 48.8281C22.9983 48.8128 23.2202 48.6597 23.2202 48.6597C23.2202 48.6597 23.6335 47.8944 23.3733 46.9224C23.2967 46.6392 22.3554 46.7999 22.3554 46.7999C22.3554 46.7999 22.5314 47.1596 22.4396 47.8638ZM23.6564 46.8152C23.7483 46.754 24.0238 46.555 24.1462 46.4632C24.5825 46.0958 24.7202 46.0729 24.9345 46.0652C25.057 46.0652 25.2483 46.1953 25.3019 46.2719C25.3555 46.3484 25.4244 46.4708 25.432 46.578C25.4397 46.6851 25.4626 46.8612 25.3937 46.9989C25.3249 47.1443 25.3555 47.1367 25.2483 47.2362C25.1412 47.3357 25.1259 47.3357 25.0953 47.3816C25.0646 47.4199 25.0493 47.4199 25.057 47.4734C25.057 47.5347 25.0493 47.527 25.1106 47.5806C25.1718 47.6341 25.2024 47.6724 25.3172 47.7336C25.1641 47.6571 25.8989 47.8637 25.7534 48.7286C25.7228 48.9123 25.6999 49.2107 25.5085 49.249C25.3249 49.2873 25.0723 49.1572 25.0264 49.1265C24.1922 48.7056 23.7942 48.6444 23.6258 48.6444C23.6871 48.476 23.7712 48.1087 23.7712 47.5193C23.7636 47.1826 23.71 46.9607 23.6564 46.8152ZM14.725 31.0188C14.9776 30.7279 15.2454 30.4218 15.5133 30.1157L15.475 34.9067C15.2607 35.0521 14.9929 35.2358 14.7097 35.4271L14.725 31.0188ZM13.6382 32.2357C13.9444 31.8759 14.151 31.6693 14.0745 31.7535C14.1587 31.654 14.2582 31.5392 14.3653 31.4167L14.3194 35.695C14.0745 35.871 13.8219 36.047 13.6 36.2077L13.6382 32.2357ZM12.5591 33.6974C12.7351 33.399 12.9571 33.0852 13.1714 32.8097L13.1408 36.5598C13.0795 36.6057 13.0183 36.6593 12.9647 36.6975C12.8117 36.82 12.6663 36.9425 12.5208 37.0649L12.5591 33.6974ZM12.2224 34.3709L12.1611 37.371C12.0463 37.4629 11.9468 37.5547 11.8397 37.6466C11.8014 35.8021 12.0387 34.8684 12.2224 34.3709ZM11.4035 42.5217C11.4035 42.5217 11.3346 41.8176 11.2963 41.014L15.9955 37.6848L15.8271 37.3863L11.2734 40.5778C11.2657 40.4859 11.2657 40.3865 11.2657 40.2946C11.2427 39.4374 11.2963 38.8022 11.2963 38.8022C11.2963 38.8022 12.5208 37.6542 13.8066 36.6899C15.3679 35.5189 16.2863 34.9985 16.2863 34.9985L16.3092 35.7715L12.6586 38.4578L12.8576 38.7946L16.3245 36.2307L16.3705 38.0598L13.6229 39.9961L13.7836 40.2487L16.3781 38.4808L16.3934 39.1696L11.4035 42.5217ZM15.5669 40.2946C15.3602 40.4171 15.1306 40.5548 14.8934 40.7002C14.8781 40.7079 14.8628 40.7232 14.8475 40.7308L14.9623 50.2745C15.1765 50.1368 15.3908 50.022 15.5669 49.9301V40.2946ZM14.5643 50.5501L14.4801 40.9681C14.2275 41.1288 13.975 41.2972 13.7301 41.4656L13.776 51.2465C14.0056 50.994 14.2811 50.7567 14.5643 50.5501ZM13.0642 53.8793C12.9035 53.0833 13.2479 52.1726 13.3168 51.9889C13.3474 51.8971 13.3933 51.8052 13.4469 51.721L13.4086 41.6952C13.2173 41.8329 13.026 41.963 12.8576 42.0778L12.8882 58.3029C13.0566 58.3182 13.2403 58.3412 13.2632 58.3412C13.3321 58.3412 13.3857 58.3412 13.4469 58.3412V54.4992C13.2709 54.3691 13.1255 54.1777 13.0642 53.8793ZM12.4902 57.7978L12.4367 42.3687C12.1841 42.5523 11.9928 42.6901 11.8933 42.759L11.9775 57.8207C12.2377 57.8054 12.429 57.7748 12.4902 57.7978ZM15.5516 63.5837C15.5516 63.5837 15.4291 63.6373 15.1765 63.7061L15.1612 60.706H14.8168V63.7827C14.702 63.8056 14.5796 63.8209 14.4418 63.8362L14.4265 60.7137H14.0821V63.8669C13.9597 63.8669 13.8372 63.8669 13.7301 63.8669L13.7148 60.7137H13.3704V63.8362C13.2096 63.8209 13.0795 63.7903 13.0183 63.775L13.003 60.7137H12.6586V63.3082C12.5821 63.2699 12.4443 63.2469 12.1841 63.224C11.9239 63.2087 11.9392 63.0097 11.9392 62.7724C11.9392 61.7928 11.9545 60.2468 11.9622 59.933C12.1688 59.933 12.3448 59.933 12.3601 59.933C12.5974 59.933 12.5974 60.0478 12.9571 60.0632C13.2096 60.0785 13.8525 60.1091 13.9979 60.1014C14.1433 60.0938 14.8704 60.0402 15.1 60.0019C15.1919 59.9866 15.3602 59.956 15.5363 59.9177V63.5837H15.5516ZM15.9801 58.5095C15.9801 58.5095 16.049 58.9228 16.049 58.9917C16.049 59.0606 16.0184 59.2902 15.9878 59.3667C15.9572 59.4432 15.8883 59.5274 15.7123 59.581C15.5363 59.6422 14.7556 59.7494 14.5872 59.7647C14.4189 59.7876 13.7913 59.8259 13.5234 59.8029C12.9188 59.7494 12.2377 59.5657 12.429 59.604C12.3372 59.581 12.3831 59.5733 12.2147 59.5733C12.0463 59.5733 11.8014 59.5733 11.6254 59.581C11.4494 59.5886 11.281 59.6346 11.258 59.4892C11.2351 59.3514 11.2274 58.7621 11.2274 58.632V58.3565C11.2274 58.3105 11.2198 58.1957 11.2198 58.1957L12.077 58.1498H12.2147C12.2147 58.1498 12.2759 58.1804 12.2836 58.2417C12.2912 58.3029 12.3142 58.41 12.3142 58.41C12.3142 58.41 12.406 58.5937 12.7275 58.5937C12.7964 58.5937 13.6765 58.6856 14.1587 58.6626C14.6408 58.6396 15.322 58.5708 15.3832 58.5631C15.4444 58.5554 15.8271 58.5172 15.8271 58.5172L15.9801 58.5095ZM14.6561 54.3155L14.5872 54.4227L14.4265 54.5834C14.4265 54.5834 14.2582 54.7135 14.0592 54.7288C14.0286 54.7288 13.9137 54.7135 13.7683 54.6676V58.3412C13.975 58.3488 14.1663 58.3488 14.3423 58.3412C14.4571 58.3335 14.5643 58.3335 14.6638 58.3258L14.6561 54.3155ZM14.3959 53.4048C14.4418 53.2517 14.5337 53.1216 14.6561 53.0144V54.1165C14.5184 53.9941 14.2964 53.7339 14.3959 53.4048ZM14.9469 58.3105C15.1842 58.2952 15.3908 58.2723 15.5516 58.257L15.5975 52.4864C15.4061 52.5552 15.1689 52.6547 14.9469 52.7848V58.3105ZM15.9266 52.0042C15.9955 51.9889 16.1332 51.9506 16.1332 51.9506C16.1332 51.9506 16.271 51.7593 16.3016 51.5527C16.3399 51.3154 16.271 51.0628 16.271 51.0628C16.271 51.0628 16.072 51.1241 15.9266 51.2159C15.7812 51.3154 15.6357 51.4914 15.6357 51.4914C15.6357 51.4914 15.6281 51.5373 15.5822 51.5527C15.5439 51.5603 15.5363 51.5603 15.4903 51.5603C15.4521 51.5603 15.3449 51.5909 15.3067 51.568C15.2684 51.545 15.3526 51.4302 15.3832 51.3843C15.3832 51.3843 15.5439 51.0399 16.0337 50.7491C16.049 50.7414 16.2327 50.6725 16.2327 50.6725C16.2327 50.6725 16.1791 50.4353 15.9955 50.1827C15.9878 50.1751 15.8271 50.2286 15.7429 50.2899C15.674 50.3358 14.9699 50.7031 14.7862 50.8409C14.6255 50.9633 14.35 51.1929 14.1357 51.3843C13.6688 51.8052 13.3627 52.5476 13.3627 53.3282C13.3627 53.4048 13.3474 53.9711 13.5923 54.216C14.0439 54.6599 14.4418 54.239 14.4418 54.239C14.4418 54.239 14.0439 53.9558 14.0592 53.5196C14.0668 53.29 14.0592 53.3206 14.1357 53.1828C14.6102 52.3103 15.2531 52.1802 15.9266 52.0042ZM20.7482 54.3538C20.7788 54.0706 20.8477 53.5578 20.9242 52.9609C20.6487 53.1522 19.6231 53.841 18.6205 54.216C17.3042 54.7058 16.2939 54.8206 15.9648 54.8436C15.9572 55.012 15.9495 55.5324 15.9419 55.9227C16.1791 55.9151 17.1817 55.8462 18.1996 55.5171C19.5696 55.0885 20.5109 54.5145 20.7482 54.3538ZM21.0849 51.8511C21.0849 51.8358 21.0926 51.8129 21.0926 51.7976C20.9854 51.8817 20.7864 52.0272 20.7329 52.0654C20.6563 52.1113 20.5492 52.1955 20.4573 52.2568C19.6155 52.8001 19.3935 52.8767 19.3935 52.8767L19.1869 52.5782C19.1869 52.5782 19.7992 52.2415 20.3655 51.8588C20.7099 51.6292 21.0313 51.369 21.1768 51.2542C21.215 51.0475 21.2456 50.8485 21.2839 50.6496C20.8783 50.971 19.7762 51.8129 18.5134 52.4481C17.3042 53.0604 16.2021 53.3206 15.9648 53.3665C15.9648 53.4354 15.9648 53.5043 15.9572 53.5731C15.9495 53.8563 15.9495 54.1854 15.9495 54.4303C16.2557 54.4226 17.2123 54.3614 18.3986 53.8946C19.1792 53.5884 20.0747 53.1216 20.9854 52.4175C21.0313 52.2261 21.0543 52.0425 21.0849 51.8511ZM23.7253 54.7058C24.1309 54.5451 24.3146 54.3155 24.3146 54.3155C24.3146 54.3155 23.886 52.9532 23.534 51.6139C23.2661 50.5883 23.0442 49.5704 22.96 49.2031C22.6462 49.2796 22.2865 49.2107 22.0263 49.1036C21.965 49.4174 21.789 50.3587 21.5288 52.0272C21.2609 53.7032 21.1385 55.5094 21.1385 55.5094C21.1385 55.5094 21.1461 55.5247 21.1921 55.5324C22.3171 55.6319 22.4166 55.364 22.4166 55.0426C22.4166 55.0043 22.363 54.4762 22.3477 53.8563C22.3171 52.2415 22.363 51.369 22.363 51.369L22.761 51.3307C22.761 51.3307 22.7151 52.6853 22.7916 53.9328C22.8299 54.4762 22.9217 54.8895 22.9217 54.8895C22.9217 54.8895 23.4345 54.813 23.7253 54.7058ZM26.2356 55.4559C26.9091 55.8921 28.0724 56.2824 29.0291 56.5197V55.1344C28.7 55.0579 27.4984 54.7747 26.3274 54.2007C25.5545 53.818 24.7891 53.2364 24.3605 52.8843C24.5825 53.5655 24.7815 54.1242 24.8197 54.2466C24.9498 54.3997 25.4167 54.9278 26.2356 55.4559ZM28.6617 52.1267C29.3352 52.3027 29.9704 52.4251 30.4602 53.3129C30.5368 53.4507 30.5291 53.4201 30.5368 53.6497C30.5521 54.0859 30.1541 54.3691 30.1541 54.3691C30.1541 54.3691 30.5521 54.79 31.0036 54.3461C31.2562 54.1012 31.2332 53.5272 31.2332 53.4507C31.2332 52.67 30.9271 51.9277 30.4602 51.5067C30.246 51.3154 29.9704 51.0858 29.8097 50.9633C29.626 50.8256 28.9219 50.4659 28.853 50.4123C28.7689 50.3511 28.6081 50.2975 28.6005 50.3052C28.4168 50.5577 28.3556 50.795 28.3556 50.795C28.3556 50.795 28.5393 50.8639 28.5546 50.8715C29.0444 51.1623 29.2051 51.5067 29.2051 51.5067C29.2357 51.5527 29.3199 51.6751 29.2816 51.6904C29.2434 51.7134 29.1362 51.6828 29.098 51.6828C29.0597 51.6828 29.052 51.6828 29.0061 51.6751C28.9678 51.6675 28.9602 51.6139 28.9602 51.6139C28.9602 51.6139 28.8148 51.4379 28.6694 51.3384C28.524 51.2389 28.325 51.1853 28.325 51.1853C28.325 51.1853 28.2561 51.4379 28.2944 51.6751C28.325 51.8817 28.4627 52.0731 28.4627 52.0731C28.4627 52.0731 28.5928 52.1037 28.6617 52.1267ZM30.9348 54.7364L30.9194 58.1345C30.774 58.1422 30.621 58.1422 30.4526 58.1422C30.4143 58.1422 30.3837 58.1422 30.3454 58.1422V54.7977C30.399 54.8206 30.4602 54.8359 30.5291 54.8436C30.5674 54.8359 30.7434 54.8206 30.9348 54.7364ZM29.9781 54.5068L29.9628 58.1192C29.7714 58.1039 29.5954 58.0809 29.4424 58.058L29.4194 52.7772C29.7485 52.9456 30.0776 53.1828 30.1847 53.5196C30.3301 53.9711 29.8327 54.3002 29.8327 54.3002L29.9781 54.5068ZM28.9143 58.4789L28.8913 59.5733C28.8913 59.5733 29.4577 59.8642 30.5674 59.8795C31.3327 59.8871 31.9297 59.8106 31.9297 59.8106C31.9297 59.8106 32.2129 59.78 32.1822 59.604C32.1669 59.5198 32.2052 59.4432 32.3583 59.4356C32.6032 59.4356 33.0165 59.4356 33.0165 59.4356L33.2308 59.4279V58.8769H33.0624C33.0165 58.8769 32.8175 58.8845 32.7486 58.8845C32.6797 58.8845 32.6185 58.8922 32.5879 58.9075C32.5496 58.9152 32.5266 58.9687 32.5113 58.9993C32.496 59.03 32.496 59.1371 32.4884 59.183C32.4807 59.2289 32.3659 59.2443 32.3353 59.2596C32.3047 59.2749 32.2358 59.2749 32.2205 59.2749V59.2825H30.001V58.9687H32.2129C32.2205 58.6473 32.6032 58.6243 32.6032 58.6243H33.2231V58.5172C33.2231 58.5172 33.2231 58.3641 33.1389 58.257C33.0777 58.1804 32.542 58.2876 32.542 58.2876C32.542 58.2876 32.3124 58.4942 31.723 58.4942C31.6848 58.4942 31.6389 58.4942 31.5776 58.4942C30.8965 58.4866 28.9143 58.4789 28.9143 58.4789ZM22.0033 2.64023C10.7988 2.64023 1.71435 15.4672 1.71435 31.2943C1.71435 41.4885 5.48744 50.4353 11.1586 55.5094V54.7517C5.78592 49.7312 2.22712 41.0906 2.22712 31.2943C2.22712 15.8193 11.082 3.23719 22.0033 3.23719C32.9246 3.23719 41.7795 15.8269 41.7795 31.2943C41.7795 40.6237 38.5575 48.8893 33.6134 54.0017V54.79C38.8559 49.6087 42.2923 41.0217 42.2923 31.2943C42.2923 15.4672 33.2078 2.64023 22.0033 2.64023ZM30.5444 54.8436C30.5368 54.8436 30.5368 54.8436 30.5291 54.8436C30.5138 54.8436 30.5138 54.8436 30.5444 54.8436ZM24.6437 34.7153C24.6437 34.7153 24.3605 34.7766 24.0774 34.7536C23.8401 34.7383 23.6029 34.6541 23.534 34.6541C23.2891 34.6694 22.9829 34.7919 22.6768 34.7919C22.3707 34.7919 22.0952 34.7766 21.9651 34.7459C21.8349 34.7153 21.5977 34.5852 21.2609 34.6771C20.9242 34.7613 20.3732 34.8684 20.3119 34.8684C20.2507 34.8684 20.1665 34.6541 20.1665 34.6541L20.1971 34.5776C20.1971 34.5776 20.7176 34.6082 21.7048 34.1031C21.7431 34.0801 21.8196 34.1107 21.8579 34.126C21.8962 34.1337 22.0875 34.2561 22.3018 34.2638C22.5161 34.2714 22.8299 34.1643 22.9217 34.126C23.0136 34.0878 23.1207 34.0954 23.1896 34.126C23.2585 34.1566 23.6794 34.4092 24.3299 34.4092C24.4218 34.4092 24.5901 34.3709 24.5978 34.4245C24.6131 34.5623 24.6437 34.7153 24.6437 34.7153ZM31.7307 58.4866C31.8302 58.4866 31.8455 58.4866 31.723 58.4866C31.723 58.4866 31.723 58.4866 31.7307 58.4866ZM14.0592 54.7211C14.0745 54.7211 14.0745 54.7211 14.0439 54.7211C14.0439 54.7288 14.0515 54.7288 14.0592 54.7211ZM16.3399 27.6283C16.3399 27.6283 17.5032 27.062 18.5976 27.1156C19.6231 27.1615 20.4573 27.8962 20.4573 27.8962L20.289 28.187C20.289 28.187 19.9905 27.9115 19.5313 27.6972C19.4854 27.6743 19.4395 27.659 19.3935 27.6437C19.4165 27.8044 19.4471 28.4855 18.567 28.4932C18.0695 28.5008 17.5185 28.1641 17.7175 27.5595C17.044 27.7125 16.4776 27.9881 16.4776 27.9881L16.3399 27.6283ZM18.8808 27.4753L18.9114 27.5212L18.9267 27.5365C18.9267 27.5365 19.0644 27.9345 18.7277 28.0493C18.4216 28.1488 18.0236 27.9804 18.192 27.5289C18.2073 27.4982 18.2455 27.4753 18.2915 27.4523C18.4063 27.4447 18.5287 27.437 18.6359 27.4447C18.72 27.4523 18.8042 27.4676 18.8808 27.4753ZM22.6003 35.5572C23.2661 35.5495 23.9396 35.3123 23.9396 35.3123L24.0774 35.672C24.0774 35.672 23.2891 35.9093 22.5084 35.9016C21.7967 35.8939 21.1079 35.6797 21.1079 35.6797L21.2839 35.3123C21.2916 35.3046 21.9574 35.5648 22.6003 35.5572ZM12.4902 17.3729C12.6203 17.3729 13.401 17.4494 13.7148 18.0158C14.0286 18.5745 14.0974 19.4622 13.7224 19.9674C13.3474 20.4725 12.8576 20.7097 12.1535 20.6256C11.457 20.549 11.0973 19.975 11.0208 19.6306C10.9443 19.2862 10.9596 18.8041 11.0284 18.5362C11.0667 18.3984 11.1279 18.1918 11.2121 18.0311C11.2963 17.8857 11.4035 17.7785 11.4035 17.7785C11.4035 17.7785 11.6101 17.6255 11.8933 17.5183C12.1305 17.4265 12.4367 17.3729 12.4902 17.3729ZM13.003 17.8551C13.0795 17.8933 13.1484 17.9545 13.2632 18.0387L13.0336 18.2607C12.98 18.1765 12.9188 18.0847 12.8652 17.9928L13.003 17.8551ZM13.2173 18.9724C13.1331 19.049 13.0413 19.1332 12.9494 19.2173C12.8882 19.1485 12.8346 19.0796 12.7811 19.0107L13.0413 18.7581C13.0948 18.8423 13.1561 18.9112 13.2173 18.9724ZM12.6433 18.2148C12.6586 18.2377 12.6816 18.2683 12.6969 18.2836C12.7504 18.3525 12.7887 18.4061 12.8193 18.4673L12.5515 18.7275C12.4902 18.628 12.4367 18.5362 12.3984 18.452L12.6433 18.2148ZM12.2224 17.7785C12.253 17.7785 12.2836 17.7785 12.3142 17.7785C12.3372 17.8168 12.3754 17.8704 12.429 17.9316C12.3601 18.0005 12.2836 18.077 12.1994 18.1688C12.1076 18.0617 11.9851 17.9239 11.9086 17.8397C11.9928 17.8015 12.0846 17.7785 12.2224 17.7785ZM12.3219 18.9495L12.0616 19.202L11.8703 18.9648L12.1152 18.7275C12.1764 18.8041 12.2377 18.8729 12.2759 18.9112C12.2912 18.9112 12.3066 18.9265 12.3219 18.9495ZM11.457 18.3296C11.457 18.3296 11.5183 18.276 11.5642 18.1841C11.5948 18.1306 11.6101 18.1 11.6407 18.054C11.7096 18.1382 11.8091 18.253 11.8397 18.3219C11.855 18.3525 11.878 18.3908 11.9162 18.452C11.832 18.5438 11.7402 18.628 11.6637 18.7122L11.4264 18.4214C11.4494 18.3602 11.457 18.3296 11.457 18.3296ZM11.3422 19.026C11.3422 18.9801 11.3346 18.9342 11.3346 18.9036C11.3346 18.8806 11.3346 18.85 11.3422 18.8117L11.4417 18.9342C11.3958 18.9724 11.3652 19.003 11.3422 19.026ZM11.4341 19.5235C11.4264 19.4929 11.4111 19.4622 11.4035 19.424L11.6407 19.1867L11.832 19.4163L11.5183 19.7225C11.4876 19.6612 11.457 19.5924 11.4341 19.5235ZM12.0693 20.2199C11.9775 20.174 11.8627 20.0822 11.7632 19.998L12.0693 19.7072L12.2836 19.9674C12.1918 20.0669 12.1229 20.151 12.0693 20.2199ZM12.2989 19.4852L12.5668 19.225C12.6356 19.3092 12.7045 19.3934 12.7428 19.4393C12.651 19.5311 12.5668 19.623 12.4902 19.7148L12.2989 19.4852ZM12.4826 20.2658C12.4902 20.2582 12.4902 20.2505 12.4979 20.2429L12.5208 20.2735C12.5132 20.2735 12.4979 20.2735 12.4826 20.2658ZM13.0795 20.1434C13.0183 20.1893 12.9571 20.2199 12.9035 20.2429L12.6969 19.9827C12.7428 19.9291 12.7964 19.8679 12.8499 19.8143C12.8806 19.7837 12.9035 19.7607 12.9341 19.7301C13.003 19.8143 13.1561 19.9368 13.2479 20.0133C13.202 20.0516 13.1484 20.0898 13.0795 20.1434ZM13.4546 19.7684C13.4239 19.7378 13.3857 19.6995 13.3321 19.6536C13.2862 19.6077 13.2326 19.5541 13.1867 19.5005C13.3015 19.3934 13.4163 19.3015 13.4928 19.2326C13.5387 19.2709 13.5694 19.3015 13.5847 19.3015C13.5847 19.3015 13.5923 19.2939 13.6 19.2862C13.5694 19.4929 13.5005 19.6612 13.4546 19.7684ZM13.4622 18.7658C13.401 18.6969 13.3321 18.6204 13.2709 18.5515L13.5158 18.3142C13.5234 18.3449 13.5311 18.3831 13.5617 18.4367C13.6 18.4979 13.6153 18.5668 13.6229 18.6433C13.577 18.6663 13.5234 18.7122 13.4622 18.7658ZM15.0847 11.587C15.0924 11.587 15.0924 11.587 15.0924 11.5946C15.1 11.5946 15.1 11.5946 15.0847 11.587ZM14.7556 59.0453C14.7556 59.0453 14.4801 59.0912 13.7301 59.0606C13.577 59.0529 13.4086 59.0453 13.225 59.0376C13.0642 59.0223 12.4902 58.9228 12.4902 58.9228L12.5055 59.2749C12.5055 59.2749 12.5362 59.3667 13.6153 59.4126C13.975 59.4279 14.7939 59.359 14.7939 59.359C14.7939 59.359 14.7862 59.3131 14.7786 59.2596C14.7786 59.2136 14.7556 59.0453 14.7556 59.0453ZM33.3073 19.3168C33.3073 18.6586 33.1236 18.3525 32.7256 17.9545C32.3277 17.5566 31.7001 17.6408 31.7001 17.6408C31.7001 17.6408 31.5776 17.6255 31.2179 17.7709C30.8582 17.9163 30.5291 18.3525 30.4296 18.6433C30.3301 18.9342 30.2842 19.6306 30.3837 20.0209C30.4832 20.4113 31.0649 20.8781 31.4858 21.0082C31.8991 21.1383 32.4272 21.0312 32.7792 20.7404C33.1313 20.4495 33.3073 19.9674 33.3073 19.3168ZM32.8787 19.7072C32.894 19.6077 32.9017 19.5158 32.9017 19.4163C32.8481 19.4622 32.7792 19.5158 32.7103 19.5694C32.7792 19.6306 32.8328 19.6765 32.8787 19.7072ZM32.8481 18.7964C32.7333 18.8576 32.542 18.9724 32.3277 19.1102C32.3889 19.1944 32.4425 19.2786 32.496 19.3474C32.6491 19.2326 32.7869 19.1408 32.8864 19.0719C32.8864 18.9648 32.871 18.8729 32.8481 18.7964ZM32.7103 18.5132C32.6491 18.4291 32.5802 18.3525 32.496 18.276C32.3812 18.3372 32.2052 18.4367 32.0215 18.5592C32.0674 18.6586 32.1134 18.7428 32.1593 18.827C32.3353 18.7046 32.5113 18.5974 32.6874 18.5132C32.695 18.5132 32.7027 18.5132 32.7103 18.5132ZM31.9909 18.0234C31.922 18.0081 31.8531 18.0081 31.7843 18.0234C31.7843 18.0311 31.7996 18.0387 31.7996 18.0464C31.8302 18.1382 31.8685 18.2224 31.9067 18.3142C32.0368 18.2377 32.1593 18.1688 32.2435 18.1229C32.1669 18.077 32.0828 18.0464 31.9909 18.0234ZM31.7077 18.7734C31.6465 18.8194 31.5853 18.8653 31.5317 18.9112C31.4781 18.9495 31.4322 18.9954 31.3786 19.0413C31.4246 19.1561 31.4705 19.2633 31.5241 19.3551C31.6312 19.2556 31.746 19.1561 31.8608 19.0643C31.8072 18.9648 31.746 18.8653 31.7077 18.7734ZM31.4705 18.1153C31.3098 18.1995 31.1873 18.2913 31.1644 18.3066C31.195 18.4597 31.2332 18.6051 31.2792 18.7352C31.371 18.651 31.4858 18.5745 31.6006 18.4903C31.5394 18.3449 31.4934 18.2071 31.4705 18.1153ZM30.7587 19.0719C30.7511 19.1025 30.7511 19.1561 30.7511 19.202C30.797 19.1638 30.8506 19.1178 30.9118 19.0643C30.8735 18.9724 30.8353 18.9036 30.82 18.85C30.7893 18.9265 30.7664 19.003 30.7587 19.0719ZM30.7817 19.6306C30.797 19.7607 30.8276 19.8908 30.8659 20.0133C30.9194 19.9521 31.0419 19.822 31.2026 19.6536C31.149 19.5464 31.0878 19.4469 31.0419 19.3474C30.9118 19.4852 30.8123 19.5924 30.7817 19.6306ZM31.4016 20.5949C31.4322 20.5414 31.5164 20.4266 31.6159 20.2888C31.5317 20.1817 31.4552 20.0669 31.3863 19.9521C31.2332 20.1204 31.1184 20.2735 31.0496 20.3653C31.1414 20.4725 31.2638 20.549 31.4016 20.5949ZM31.8302 19.4852C31.7766 19.5311 31.7307 19.5847 31.6771 19.6306C31.746 19.7378 31.8225 19.8373 31.8914 19.9214C31.9909 19.799 32.0981 19.6842 32.2052 19.5847C32.1363 19.5005 32.0751 19.4087 32.0139 19.3245C31.9603 19.3781 31.8914 19.4316 31.8302 19.4852ZM31.9144 20.6791C31.9526 20.6791 31.9833 20.6791 32.0215 20.6791C31.9526 20.6409 31.8838 20.5873 31.8149 20.5184C31.7843 20.572 31.7537 20.6179 31.723 20.6638C31.7919 20.6715 31.8532 20.6791 31.9144 20.6791ZM32.1134 20.1357C32.297 20.2965 32.4654 20.373 32.5802 20.4189C32.6568 20.3424 32.7256 20.2505 32.7792 20.1357C32.7945 20.1128 32.8022 20.0822 32.8098 20.0516C32.6797 19.9903 32.5573 19.9061 32.4501 19.8143C32.3277 19.9138 32.2205 20.0209 32.1134 20.1357ZM34.44 27.7738C34.8379 27.835 35.0676 27.9574 35.2206 28.3095C35.3813 28.6615 35.3201 29.0289 35.2512 29.2432C35.1824 29.4575 34.8839 29.6947 34.6696 29.7254C34.4553 29.7483 34.1109 29.733 33.9578 29.6794C33.8124 29.6259 33.5139 29.2126 33.5139 29.0595C33.5139 28.9065 33.5522 28.4932 33.5905 28.3631C33.6211 28.233 33.7053 28.1488 33.7053 28.1488C33.7053 28.1488 34.042 27.7125 34.44 27.7738ZM35.0216 28.5391L34.7691 28.6998L34.639 28.5008L34.9221 28.3248C34.9681 28.386 34.9987 28.4626 35.0216 28.5391ZM34.3634 28.0416C34.5471 28.034 34.6543 28.0263 34.7767 28.1488L34.5165 28.3095L34.3405 28.0416C34.3481 28.0416 34.3558 28.0416 34.3634 28.0416ZM34.6313 28.7917L34.3941 28.9447L34.264 28.7381L34.5012 28.5927L34.5089 28.6003C34.5242 28.6156 34.5777 28.7075 34.6313 28.7917ZM34.1568 28.1029C34.2027 28.1717 34.2869 28.3018 34.3634 28.409L34.1338 28.5544L33.9502 28.2712C33.9961 28.21 34.0726 28.1488 34.1568 28.1029ZM33.8507 28.4549L33.9731 28.6462L33.7971 28.761C33.8047 28.585 33.843 28.4702 33.8507 28.4549ZM33.9272 29.2432C33.8736 29.182 33.8354 29.1131 33.8201 29.0213L34.1032 28.8376L34.241 29.0442L33.9272 29.2432ZM34.3634 29.4805C34.2563 29.4728 34.1798 29.4269 34.0956 29.3733L34.3481 29.2126L34.5089 29.4575C34.4476 29.4805 34.3941 29.4881 34.3634 29.4805ZM34.6925 29.3963L34.5089 29.1131L34.7461 28.96C34.7767 28.9983 34.815 29.0519 34.8303 29.0901C34.8456 29.1284 34.8915 29.2049 34.9145 29.2432C34.8533 29.3121 34.7767 29.358 34.6925 29.3963ZM35.014 29.0672L34.8839 28.8758L35.0522 28.7687C35.0522 28.8835 35.0446 28.983 35.014 29.0672ZM10.5692 26.8018C10.5846 26.8401 10.6152 26.9778 10.6381 27.1309C10.6611 27.284 10.6458 27.46 10.6458 27.5365C10.6458 27.6819 10.5692 27.9115 10.4162 28.0646C10.2937 28.187 9.90341 28.3478 9.62023 28.3248C9.06154 28.2712 8.92378 28.0799 8.86255 27.7738C8.60999 26.4191 9.59727 26.3273 9.83453 26.3196C9.96463 26.3349 10.2019 26.3885 10.2784 26.4497C10.3703 26.511 10.5386 26.7176 10.5692 26.8018ZM10.1177 26.6946C10.0794 26.6411 9.99525 26.6181 9.91871 26.6028L9.98759 26.8094L10.1407 26.7176C10.133 26.7176 10.1254 26.7023 10.1177 26.6946ZM9.70442 26.5951C9.65085 26.6028 9.55901 26.6487 9.48247 26.7023L9.59727 27.0543L9.81157 26.9242L9.70442 26.5951ZM9.29879 26.8554C9.23757 26.9396 9.09215 27.1462 9.12277 27.3452L9.40594 27.1691L9.29879 26.8554ZM9.1993 27.7049C9.20695 27.7355 9.22226 27.7585 9.24522 27.7891L9.55901 27.613L9.48247 27.3834L9.17634 27.5748C9.18399 27.6207 9.19165 27.6666 9.1993 27.7049ZM9.4289 27.9727C9.47482 28.0034 9.58197 28.0187 9.68911 28.0187L9.61258 27.7891L9.36767 27.9268C9.39063 27.9421 9.41359 27.9574 9.4289 27.9727ZM9.66615 27.2686L9.74269 27.5059L9.96463 27.3834L9.88045 27.1385L9.66615 27.2686ZM9.90341 27.9957C9.97229 27.9651 10.0488 27.9192 10.1254 27.8656L10.0259 27.5595L9.80391 27.6819L9.90341 27.9957ZM10.0565 27.0314L10.1407 27.284L10.332 27.1768C10.332 27.1538 10.3243 27.1309 10.3243 27.1156C10.3243 27.0314 10.2861 26.9472 10.2402 26.8783L10.2478 26.9166L10.0565 27.0314ZM10.3167 27.6666C10.3626 27.5748 10.3703 27.4676 10.355 27.3681L10.1942 27.46L10.2784 27.7202C10.2937 27.7049 10.309 27.6819 10.3167 27.6666ZM20.7176 47.726L21.5518 47.9939L21.6666 47.6648L20.8247 47.3816L20.7176 47.726ZM24.8886 47.6112L23.9013 47.6188L23.8784 47.9785H24.881L24.8886 47.6112ZM23.4575 15.3677C23.312 15.4596 22.6462 15.6356 21.8579 15.3754C21.6436 15.3065 21.062 15.0845 20.84 14.4723C20.6181 13.8524 20.6334 13.5386 20.7023 13.2707C20.7405 13.1023 20.7941 12.8574 20.9931 12.5436C21.1385 12.3217 21.3681 12.138 21.3681 12.138C21.3681 12.138 22.562 11.2196 23.2278 11.4875C23.8937 11.7553 24.2687 12.1992 24.4447 12.513C24.6208 12.8268 24.8044 13.5309 24.5901 14.0284C24.3912 14.4723 24.2917 14.832 23.4575 15.3677ZM21.1921 14.0207C21.1079 13.7146 21.1155 13.5003 21.1385 13.3549C21.2227 13.3702 21.4446 13.4085 21.7125 13.4773C21.6972 13.6687 21.6895 13.86 21.6819 14.036C21.4752 14.0131 21.2992 14.0131 21.1921 14.0207ZM21.3375 14.4034C21.4217 14.4187 21.5441 14.434 21.6819 14.4646C21.6819 14.633 21.6895 14.7555 21.6895 14.7937C21.6895 14.832 21.7048 14.8703 21.7201 14.9085C21.5747 14.7937 21.4446 14.633 21.3375 14.4034ZM21.7508 13.1329C21.5288 13.087 21.3528 13.0641 21.2303 13.0564C21.2763 12.9416 21.3222 12.8498 21.3222 12.8498C21.3222 12.8498 21.4905 12.6355 21.6819 12.4518C21.7278 12.4595 21.789 12.4748 21.8503 12.4901C21.8196 12.6431 21.7814 12.8727 21.7508 13.1329ZM22.7457 15.1305C22.7457 15.0463 22.7533 14.9315 22.761 14.7861C22.96 14.8626 23.1513 14.9468 23.2814 15.008C23.1054 15.0769 22.9217 15.1152 22.7457 15.1305ZM23.4498 14.5794C23.2585 14.5029 23.0289 14.4187 22.784 14.3269C22.7916 14.1738 22.8069 14.0131 22.8222 13.8371C23.0595 13.9442 23.2967 14.059 23.4957 14.1661C23.4804 14.3116 23.4651 14.457 23.4498 14.5794ZM24.0008 12.5589C24.0927 12.6661 24.1539 12.7732 24.1692 12.8574C24.1769 12.9033 24.1922 12.9646 24.1998 13.0335C24.1309 12.9952 24.0391 12.9493 23.9473 12.9033C23.9702 12.7503 23.9855 12.6278 24.0008 12.5589ZM23.8631 13.5309C23.8707 13.462 23.8784 13.3932 23.886 13.3243C24.0161 13.4085 24.1386 13.5003 24.261 13.6075C24.2687 13.7911 24.261 13.9748 24.2151 14.1279C24.1309 14.082 23.9932 14.0054 23.8172 13.9136C23.8401 13.7835 23.8478 13.6534 23.8631 13.5309ZM24.0315 14.457C23.9626 14.5412 23.8784 14.6253 23.7789 14.7095C23.7712 14.7019 23.7483 14.7019 23.7406 14.6942C23.7483 14.6024 23.7636 14.4646 23.7789 14.3192C23.886 14.3728 23.9779 14.4264 24.0315 14.457ZM23.0977 12.0385C23.1054 12.0156 23.1054 12.0003 23.1054 11.9773C23.136 11.9849 23.159 11.9849 23.1819 12.0003C23.3809 12.0691 23.5876 12.1916 23.7559 12.337C23.7483 12.4059 23.7177 12.5743 23.687 12.7885C23.4881 12.6967 23.2738 12.5972 23.0518 12.513C23.0365 12.5054 23.0212 12.4977 22.9983 12.4977C23.0365 12.337 23.0671 12.1839 23.0977 12.0385ZM23.6335 13.1636C23.6029 13.3625 23.5723 13.5692 23.5493 13.7758C23.335 13.6763 23.1054 13.5615 22.8681 13.4697C22.8911 13.2631 22.9217 13.0488 22.9523 12.8345C23.1743 12.9187 23.4115 13.0335 23.6335 13.1636ZM22.1334 12.1457C22.3477 12.0615 22.6079 11.939 22.9141 11.9543C22.8834 12.0462 22.8452 12.1992 22.7993 12.4135C22.5391 12.3217 22.2941 12.2528 22.1105 12.2069C22.1181 12.1839 22.1258 12.1533 22.1334 12.1457ZM22.5391 15.1381C22.3018 15.1305 22.0952 15.0922 21.9038 15.008C21.9038 14.8932 21.9038 14.7248 21.9038 14.5105C22.0492 14.5412 22.2023 14.5794 22.3477 14.633C22.4013 14.656 22.4702 14.6789 22.5314 14.7019C22.5314 14.8396 22.5314 14.9851 22.5391 15.1381ZM22.5544 14.2427C22.4931 14.2197 22.4319 14.1968 22.3783 14.1815C22.2253 14.1279 22.0645 14.0896 21.9191 14.0667C21.9268 13.8906 21.9344 13.7069 21.9421 13.5309C22.1564 13.5921 22.386 13.661 22.5926 13.7376C22.5773 13.8983 22.562 14.0667 22.5544 14.2427ZM22.5544 13.3472C22.3401 13.2707 22.1411 13.2171 21.9574 13.1712C21.9727 12.934 21.9957 12.7044 22.0263 12.5207C22.2253 12.5743 22.4625 12.6431 22.7227 12.735C22.6921 12.9187 22.6539 13.1329 22.6232 13.3702C22.6079 13.3702 22.5773 13.3549 22.5544 13.3472ZM16.9368 41.5574C16.6689 41.4273 16.5388 41.1288 16.5388 40.9298C16.5388 40.9911 16.5312 40.2104 17.2583 40.1492C17.7175 40.1109 17.9624 40.463 18.0159 40.6849C18.0695 40.8763 18.0236 41.037 18.0236 41.037L18.0848 41.1212C18.0848 41.1212 18.3068 40.9987 18.6129 41.0446C18.8731 41.0829 19.0874 41.2972 19.2252 41.4503C19.3629 41.6033 19.4471 41.963 19.4241 42.0702C19.4012 42.185 19.3629 42.2692 19.3629 42.2692L19.6002 42.4758C19.6002 42.4758 19.9599 42.3227 20.1665 42.3227C20.3732 42.3304 20.7405 42.4222 20.9242 42.5676C21.3298 42.8891 21.3681 43.4095 21.3681 43.4095L21.5518 43.4401C21.5518 43.4401 21.7048 43.1493 22.011 42.9733V42.958C22.1411 42.8967 22.3477 42.8049 22.6309 42.8126C22.9141 42.8049 23.1207 42.8967 23.2508 42.958V42.9733C23.5493 43.1493 23.71 43.4401 23.71 43.4401L23.8937 43.4095C23.8937 43.4095 23.9243 42.8891 24.3376 42.5676C24.5213 42.4222 24.8886 42.3304 25.0953 42.3227C25.3019 42.3151 25.6616 42.4758 25.6616 42.4758L25.8989 42.2692C25.8989 42.2692 25.8606 42.185 25.8376 42.0702C25.8147 41.9554 25.8989 41.6033 26.0366 41.4503C26.1744 41.2972 26.3887 41.0829 26.6489 41.0446C26.955 40.9987 27.177 41.1212 27.177 41.1212L27.2382 41.037C27.2382 41.037 27.1999 40.8763 27.2458 40.6849C27.3071 40.463 27.552 40.1109 28.0035 40.1492C28.7306 40.2104 28.7229 40.9911 28.7229 40.9298C28.7306 41.1288 28.6005 41.4273 28.325 41.5574C28.0877 41.6722 27.8811 41.6416 27.8811 41.6416L27.751 41.7487C27.751 41.7487 27.7816 41.963 27.7892 42.1391C27.7969 42.338 27.6821 42.5217 27.5979 42.6212C27.0851 43.2029 26.5035 42.8967 26.5035 42.8967L26.205 43.111C26.2356 43.1799 26.3963 43.7386 26.1744 44.0983C25.8376 44.6417 25.4244 44.7488 25.1794 44.7642C24.5213 44.7948 24.1386 44.2514 24.1386 44.2514L23.9013 44.282C23.9013 44.282 23.886 44.6187 23.5799 44.9861C23.4651 45.1239 23.312 45.2157 23.159 45.2693C23.0059 45.3382 22.8835 45.3535 22.784 45.3535C22.7304 45.3611 22.6845 45.3611 22.6462 45.3611C22.6079 45.3611 22.562 45.3611 22.5084 45.3535C22.4013 45.3458 22.2865 45.3382 22.1334 45.2693C21.9804 45.2157 21.8273 45.1239 21.7125 44.9861C21.4064 44.6187 21.3911 44.282 21.3911 44.282L21.1538 44.2514C21.1538 44.2514 20.7711 44.7948 20.1129 44.7642C19.868 44.7488 19.4548 44.6417 19.118 44.0983C18.8961 43.7386 19.0568 43.1799 19.0874 43.111L18.7889 42.8967C18.7889 42.8967 18.2073 43.2029 17.6945 42.6212C17.6103 42.5217 17.4955 42.338 17.5032 42.1391C17.5108 41.9707 17.5414 41.7487 17.5414 41.7487L17.4113 41.6416C17.3807 41.6492 17.1741 41.6722 16.9368 41.5574ZM19.0568 43.157C19.0644 43.134 19.0644 43.1263 19.0644 43.1187L19.0568 43.157ZM26.1973 43.157L26.1897 43.1187C26.1897 43.1263 26.1897 43.134 26.1973 43.157ZM16.822 40.8533C16.8603 40.7155 16.8756 40.5854 17.0975 40.4553C17.3195 40.3252 17.595 40.4477 17.6792 40.5548C17.7557 40.662 17.8399 40.838 17.8169 40.9451C17.7863 41.0676 17.7557 41.1977 17.7557 41.1977L17.993 41.4579C17.993 41.4579 18.2991 41.0906 18.766 41.3584C19.0491 41.5191 19.2405 41.8176 19.1792 42.0625C19.118 42.3151 19.0797 42.3457 19.0797 42.3457L19.0415 42.3687L19.6002 42.8279C19.6002 42.8279 19.9063 42.6365 20.1589 42.6442C20.4114 42.6595 20.6793 42.7437 20.8094 42.8891C20.9548 43.0575 21.0849 43.1876 21.0773 43.509C21.0773 43.685 21.0696 43.6927 21.0696 43.6927L21.1921 43.708C21.1921 43.708 21.2839 43.7156 21.3604 43.731C21.3987 43.7386 21.437 43.7386 21.4752 43.7539C21.4523 43.7463 21.6589 43.7769 21.6589 43.7769C21.6589 43.7769 21.7125 43.6391 21.812 43.5014C21.8196 43.486 21.8349 43.4784 21.8426 43.4631C21.8656 43.4325 21.8885 43.4095 21.9115 43.3866C22.0033 43.2871 22.1334 43.1952 22.3018 43.1416C22.6462 43.0345 22.8222 43.1263 23.0901 43.2182C23.4039 43.333 23.5799 43.7769 23.5799 43.7769C23.5799 43.7769 23.7942 43.7463 23.7636 43.7539C23.8095 43.7386 23.8478 43.7386 23.886 43.731C23.9626 43.7156 24.0544 43.708 24.0544 43.708L24.1769 43.6927C24.1769 43.6927 24.1769 43.685 24.1769 43.509C24.1769 43.1799 24.2993 43.0575 24.4447 42.8891C24.5748 42.7437 24.8427 42.6595 25.0953 42.6442C25.3478 42.6289 25.654 42.8279 25.654 42.8279L26.2126 42.3687L26.1744 42.3457C26.1744 42.3457 26.1361 42.3151 26.0749 42.0625C26.0137 41.8176 26.205 41.5191 26.4882 41.3584C26.9627 41.0829 27.2688 41.4579 27.2688 41.4579L27.5061 41.1977C27.5061 41.1977 27.4754 41.0676 27.4448 40.9451C27.4142 40.8303 27.4984 40.6543 27.5826 40.5548C27.6591 40.4553 27.9423 40.3252 28.1566 40.4553C28.3785 40.5854 28.3938 40.7155 28.4321 40.8533C28.4704 40.9911 28.3785 41.1365 28.279 41.2513C28.0877 41.4809 27.7433 41.3737 27.7433 41.3737L27.4219 41.6416C27.4219 41.6416 27.552 41.9018 27.5137 42.162C27.4908 42.3457 27.3224 42.5523 27.0698 42.6824C26.756 42.8432 26.404 42.6212 26.404 42.6212C26.404 42.6212 26.3274 42.6671 26.2815 42.7131C26.1973 42.7896 25.8453 43.0498 25.8453 43.0498C25.8453 43.0498 26.0749 43.2871 25.9677 43.7463C25.8836 44.0983 25.5698 44.4044 25.3096 44.4504C24.5136 44.5958 24.2457 43.9606 24.2457 43.9606L24.1539 43.9759C24.1539 43.9759 24.0544 43.9912 23.9626 44.0065C23.8707 44.0218 23.7406 44.0447 23.7406 44.0447L23.5952 44.0677C23.5952 44.0677 23.5952 45.1468 22.4396 45.0473C22.1258 45.0167 21.9191 44.8101 21.7967 44.6034C21.7967 44.5958 21.7967 44.5958 21.789 44.5881C21.6742 44.3968 21.636 44.2131 21.636 44.1978C21.636 44.1672 21.6283 44.1672 21.6283 44.1672L21.636 44.06L21.5059 44.0371C21.5059 44.0371 21.3834 44.0141 21.2839 43.9988C21.1921 43.9835 21.0926 43.9682 21.0926 43.9682L21.0007 43.9529C21.0007 43.9529 20.7329 44.5881 19.9369 44.4427C19.6767 44.3968 19.3629 44.0907 19.2787 43.7386C19.1716 43.2794 19.4012 43.0422 19.4012 43.0422C19.4012 43.0422 19.0415 42.7743 18.9649 42.7054C18.919 42.6671 18.8425 42.6136 18.8425 42.6136C18.8425 42.6136 18.4904 42.8432 18.1767 42.6748C17.9241 42.5447 17.7557 42.338 17.7328 42.1544C17.7021 41.8942 17.8246 41.6339 17.8246 41.6339L17.5032 41.3661C17.5032 41.3661 17.1511 41.4732 16.9674 41.2436C16.8756 41.1365 16.7761 40.9911 16.822 40.8533ZM22.0416 0.696289C34.1721 0.726902 44.0066 14.4111 44.0066 31.2943C44.0066 42.2692 39.8509 51.8817 33.6134 57.285V56.0222C39.3534 50.7337 43.1495 41.6339 43.1495 31.2943C43.1495 14.9544 33.6823 1.69888 22.0033 1.69888C10.3243 1.69888 0.857173 14.9468 0.857173 31.2943C0.857173 42.0931 4.98997 51.5373 11.1586 56.7033V57.8513C11.2657 57.859 11.3728 57.859 11.4723 57.859L11.4111 43.0881L11.0055 43.3559C11.0055 43.3559 10.9213 42.5141 10.8524 41.611C10.7606 40.3788 10.7988 38.8405 10.7988 38.8405L10.8295 38.542C10.8295 38.542 10.9902 38.3966 11.2504 38.1593C11.2427 37.6848 11.2351 35.7103 11.4188 35.0368C11.6254 34.2714 11.9622 33.4908 12.3142 33.0239C12.6663 32.5647 14.3959 30.5672 14.3959 30.5672C14.3959 30.5672 16.3399 28.5391 16.3552 28.3707C16.3781 28.2024 16.7531 28.6845 16.7531 28.6845C16.7531 28.6845 16.646 28.807 16.4776 28.9983C16.5006 29.0825 16.4776 29.1437 16.47 29.2202C16.4623 29.3197 16.447 29.5264 16.4929 30.2687C16.646 32.9398 18.2379 35.4577 19.1563 36.4832C19.7992 37.195 20.9625 38.2129 22.2788 38.3507C22.3324 38.3583 22.386 38.3583 22.4396 38.366C22.4702 38.366 22.5008 38.366 22.5314 38.366C22.562 38.366 22.5926 38.366 22.6232 38.366C22.6768 38.366 22.7304 38.3583 22.784 38.3507C24.1003 38.2129 25.3096 37.2103 25.9524 36.4909C26.8708 35.473 28.4551 32.9551 28.5775 30.2687C28.6081 29.5264 28.5928 28.6692 28.5775 28.5774C28.5699 28.5008 28.5546 28.4396 28.5699 28.3554C28.5393 28.2942 28.5086 28.2406 28.478 28.187C28.4168 28.0876 28.3632 27.9881 28.302 27.8962C28.2102 27.8503 27.6974 27.613 27.0851 27.4753C27.1387 28.011 26.9397 28.409 26.2356 28.4013C25.3325 28.3937 25.409 27.6437 25.4167 27.5518C25.3631 27.5748 25.3172 27.5901 25.2636 27.613C24.8044 27.8273 24.506 28.1029 24.506 28.1029L24.3299 27.7355C24.3299 27.7355 25.1794 27.085 26.205 27.0314C26.8632 27.0008 27.529 27.1998 27.9576 27.3605C27.5979 26.8401 27.3147 26.5033 27.3147 26.5033C27.3147 26.5033 27.2612 26.4497 27.154 26.3656C26.6412 26.2508 25.6999 26.1513 24.682 26.5033C24.6896 26.4957 24.1616 26.6181 23.7636 26.9549C23.2508 27.3758 22.7993 27.7967 22.9141 29.6335C22.9523 30.2917 22.9983 30.9269 23.0059 31.4474C23.0212 32.2203 22.9983 32.7561 22.9983 32.7561C22.9983 32.7561 23.0442 32.7255 23.0901 32.7102C23.4115 32.6413 23.687 32.7408 23.7177 32.7484C24.1003 32.8479 24.1156 32.404 24.1998 32.4499C24.4371 32.5647 24.1309 32.8556 24.1233 32.8632C24.0697 32.9245 23.9243 32.9627 23.7712 32.9933C23.6488 33.0163 23.5263 32.9245 23.4192 32.9168C23.2814 32.9091 23.1666 32.9168 23.0595 32.9398C22.9523 32.9627 22.8758 33.0393 22.761 33.0775C22.6539 33.1158 22.4778 33.1081 22.3554 33.1081C22.0569 33.1081 21.988 32.9015 21.6207 33.0393C21.59 33.0469 21.4599 33.0775 21.3375 33.0775C21.2303 33.0775 21.1232 33.0775 21.0696 33.0699C20.8324 33.0469 20.7329 32.8403 20.7252 32.7637C20.7176 32.6719 20.6793 32.5188 20.7252 32.4346C20.7711 32.3581 20.7864 32.3887 20.8553 32.3887C20.9012 32.3887 20.8477 32.8938 21.2533 32.8479C21.3451 32.8403 21.5288 32.8173 21.6053 32.7943C21.965 32.7025 22.0875 32.7714 22.1487 32.8097C22.21 32.8479 22.2941 32.8862 22.3783 32.8785C22.4549 32.8709 22.5467 32.8326 22.6309 32.7867C22.7227 32.7255 22.7533 32.603 22.7687 32.3581C22.7763 32.2127 22.7227 30.8274 22.6921 30.2458C22.5697 28.187 22.8069 27.7125 23.0289 27.3528C23.9013 25.9293 25.6463 25.8375 26.4652 25.8834C26.2815 25.7686 26.0596 25.6461 25.8147 25.5313C25.1641 25.2252 24.1998 24.9267 23.6182 24.7584C23.0212 24.5823 22.6385 24.2456 22.7151 24.3145C22.0186 23.6716 21.6589 22.447 21.6053 22.2787C21.6053 22.2863 21.6053 22.3093 21.5977 22.3169C21.5594 22.5006 21.4676 22.8297 21.4217 22.9675C21.414 22.9904 21.1155 23.9165 20.4727 23.8629C20.2354 23.84 20.0823 23.6104 20.0823 23.6104C20.0823 23.6104 19.6308 23.5874 19.5313 24.0466C19.5236 24.0696 19.2787 24.8272 18.4445 24.9497C18.2761 24.9726 17.7175 25.1181 17.3807 25.6614C17.3807 25.6691 17.3654 25.6844 17.3577 25.6997C17.6486 25.7227 18.4598 25.7839 18.9114 25.891C19.7992 26.1053 19.9522 26.3502 19.9522 26.3885C19.9522 26.4574 19.9293 26.7023 19.9293 26.7023C19.9293 26.7023 19.2405 26.465 18.544 26.312C17.2123 26.0135 17.0363 26.2508 17.0363 26.2508L17.0899 26.0977C16.7149 26.687 16.1026 27.6437 16.1026 27.6437C16.1026 27.6437 15.4444 28.5927 14.748 29.381C14.0132 30.2228 13.2403 30.9193 13.2403 30.9193L13.0489 30.8887L12.9571 30.8121L12.9112 30.6667L14.4571 29.0136L15.697 27.3681L16.6001 25.9905C16.6001 25.9905 17.2429 24.7277 18.5134 24.4905C18.7047 24.4522 18.766 24.3604 18.8578 24.192C18.9496 24.0236 19.1563 23.6869 19.2022 23.6027C19.5007 23.0517 19.9293 23.1205 19.9293 23.1205V22.6154C19.9293 22.4394 19.9599 22.2787 19.9599 22.2787L20.3808 22.3093C20.3808 22.3093 20.3579 22.8221 20.3579 23.0364C20.3579 23.2889 20.6716 23.7787 21.016 22.5925C21.1002 22.3246 21.1997 21.6894 21.215 21.322C21.2227 21.123 21.2533 20.8934 21.3222 20.7097C21.5365 20.1281 21.8349 20.0439 22.0339 20.0745C22.0033 19.9674 21.9727 19.8526 21.9574 19.7225C21.8732 19.1408 21.8426 18.3755 21.8273 18.077H21.0313C20.7329 18.077 20.2201 17.6943 20.2201 17.6943C20.2201 17.6943 20.0288 17.4877 19.9216 17.2734C19.8068 17.0668 19.8374 16.7453 19.8374 16.7453C19.8374 16.7453 19.715 16.7759 19.5696 16.7836L19.6155 16.7989C19.6155 16.7989 19.3476 17.3882 19.0644 17.7785C18.8348 18.0923 18.5746 18.3066 18.4981 18.3678C18.2532 18.5438 18.0312 18.4597 18.0312 18.4597L17.6715 18.1841C17.6715 18.1841 17.6103 18.1688 17.5873 18.2224C17.572 18.2454 17.3271 18.5209 17.0822 18.7505C16.9827 18.8423 16.8756 18.9342 16.7914 19.003C16.8297 19.2939 16.7991 19.623 16.6154 19.9827C15.7659 21.6128 15.1842 21.9419 14.924 21.9037C14.8168 21.8884 15.1612 22.2634 14.6102 22.669C14.0592 23.0823 13.975 23.2047 13.9214 23.266C13.8678 23.3348 13.4469 23.5491 13.1408 23.4573C12.9954 23.419 12.8882 23.3884 12.7964 23.3731C12.5362 23.7328 12.0616 24.5134 11.7555 25.6614C11.9086 25.7839 12.0616 25.9446 12.0923 26.0671C12.1382 26.2431 12.2147 26.5722 12.1994 26.664C12.1918 26.7635 12.1611 26.8936 12.1611 26.8936C12.1611 26.8936 12.4367 27.1003 12.429 27.3605C12.4137 27.6207 12.3678 27.9574 12.2759 28.1717C12.1764 28.386 12.1229 28.784 12.0923 28.8529C12.0693 28.9218 11.9698 29.2738 11.7708 29.4498C11.3805 29.7942 11.0438 29.7636 11.0438 29.7636C11.0438 29.7636 11.0284 29.909 10.8754 30.0391L11.0514 32.3964C11.0514 32.3964 11.105 32.6566 10.2784 32.802C9.65085 32.9168 9.38298 32.8862 9.38298 32.8862C9.38298 32.8862 9.18399 32.7484 9.04623 32.4423C9.00031 32.3505 8.96205 32.2816 8.92378 32.2203C8.81663 32.2586 8.70183 32.2739 8.58703 32.2739C7.98242 32.2739 7.48495 31.8071 7.48495 31.2331C7.48495 30.6744 7.95181 30.2152 8.53346 30.1922C8.10487 30.0468 7.90589 29.5723 7.90589 29.5723C7.90589 29.5723 7.60741 29.4498 7.50791 29.381C6.99514 28.9983 7.04872 28.7534 6.80381 28.3095C6.74258 28.2023 6.6737 27.7661 6.6737 27.6743C6.6737 27.5824 6.64309 27.2916 6.71962 27.0773C6.84208 26.7482 7.07933 26.7482 7.07933 26.7482C7.07933 26.7482 7.0181 26.5951 6.98749 26.4344C6.80381 26.3349 6.50533 26.1742 6.40584 26.0747C6.29869 25.9676 6.12266 25.6844 6.12266 25.6844C6.12266 25.6844 5.90837 25.6997 5.64816 25.6997C5.3956 25.6997 4.88282 25.4548 4.69914 25.4089C4.52312 25.363 4.50781 25.3783 4.50781 25.3783C4.50781 25.3783 4.43893 24.6895 4.64557 24.1231C4.79098 23.7328 5.13538 23.3808 5.13538 23.3808C5.13538 23.3808 4.8369 22.9445 4.77568 22.8297C4.54608 22.3935 4.65322 22.3552 4.69914 22.3093C4.7068 22.3016 4.81394 22.1639 5.02058 22.0414C5.21192 21.9113 5.46448 21.8424 5.46448 21.8424C5.46448 21.8424 5.77826 21.7276 5.80122 21.697C5.82418 21.6664 5.79357 21.6817 5.84714 21.5899C5.89306 21.498 5.91602 21.4751 6.00786 21.3373C6.0997 21.1919 6.28338 21.1536 6.35992 21.0924C6.43645 21.0312 6.93392 20.8322 6.99514 20.8245C7.05637 20.8092 7.20178 20.771 7.20178 20.771C7.20178 20.771 6.97984 20.4342 6.95688 20.373C6.80381 19.9214 6.53594 19.7378 6.57421 19.7684C6.49768 19.7072 6.69666 19.577 6.75024 19.5617C6.81146 19.5388 6.92626 19.4852 6.92626 19.4622C6.92626 19.4316 6.4441 18.9265 6.3293 18.7199C5.96194 18.0464 5.90072 17.8321 5.91602 17.7862C5.94664 17.7173 6.38288 17.2504 6.62778 17.1203C6.87269 16.9902 7.27066 16.8372 7.39311 16.8219C7.51557 16.8065 7.62271 16.7912 7.7069 16.7759C7.79109 16.7683 7.85997 16.7606 7.85997 16.7606C7.85997 16.7606 7.85231 16.6994 7.90589 16.5234C7.95946 16.3473 7.98242 16.2632 8.01303 16.2096C8.0513 16.156 8.08191 16.0871 8.08191 16.0871C8.08191 16.0871 8.38039 16.1331 8.8549 16.179C9.01562 16.1943 9.32941 16.2249 9.47482 16.2402C9.58962 16.0565 9.72738 15.8728 9.85749 15.7198L9.03858 15.008C9.03858 15.008 8.99266 14.9697 8.99266 14.9391C8.99266 14.9085 9.02327 14.7784 9.05389 14.7172C9.0845 14.656 9.26053 14.434 9.26053 14.434C9.26053 14.434 8.80133 13.8217 8.68653 13.5845C8.36509 12.9569 8.50285 11.9849 8.54111 11.9773C9.97229 11.4951 11.0514 11.9467 11.0514 11.9467C11.0514 11.9467 11.5336 11.4798 11.5871 11.4798C11.9315 11.4951 12.6892 12.1992 12.6892 12.1992C12.6892 12.1992 12.7504 12.0615 12.8576 11.9543C12.9647 11.8472 13.1102 11.763 13.1102 11.763C13.1102 11.763 13.2862 11.8395 13.5158 11.8166C13.8602 11.786 14.2582 11.6405 14.2582 11.6405C14.2582 11.6405 13.5387 11.1354 13.2862 10.791C12.9494 10.3318 12.8652 9.90324 12.8652 9.90324C12.8652 9.90324 13.225 9.34455 13.9138 9.05372C14.5184 8.80116 15.4521 8.88535 15.4521 8.88535C15.4521 8.88535 15.4597 8.83178 15.4674 8.7782C15.4674 8.86239 15.475 8.86239 15.475 8.69402C15.475 8.71698 15.4674 8.74759 15.4674 8.7782C15.4597 8.57156 15.4903 7.8445 15.7352 7.79858C16.7225 7.59194 17.7863 8.73994 17.7863 8.73994C17.7863 8.73994 17.97 8.3037 17.993 8.25012C18.0772 8.0894 18.2838 8.02818 18.2838 8.02818C18.2838 8.02818 18.5211 7.93634 18.6894 7.98991C19.0032 8.0894 19.3323 8.36492 19.3323 8.36492C19.3323 8.36492 19.3706 8.05879 19.4854 7.77562C19.6537 7.37764 19.9293 7.13274 20.1512 7.13274C20.1971 7.13274 20.2813 7.1557 20.2813 7.1557C20.2813 7.1557 20.2431 6.8113 20.266 6.47455C20.289 6.13015 20.3655 5.78575 20.3655 5.78575L21.3375 6.03066C21.3375 6.03066 21.3834 5.98474 21.414 5.90821C21.4293 5.87759 21.7201 5.32655 22.0339 5.08165C22.0569 5.06634 22.1793 4.92093 22.3095 4.82909C22.4319 4.7449 22.6385 4.59949 22.6385 4.59949C22.6385 4.59949 23.1743 4.92858 23.3962 5.14287C23.4804 5.21941 24.0927 5.86994 24.0927 5.86994C24.0927 5.86994 24.3605 5.83167 24.7049 5.82402C25.0723 5.82402 25.3402 5.8929 25.3402 5.88525C25.3402 5.90821 25.409 6.19138 25.409 6.42863C25.409 6.66588 25.3019 7.37764 25.3019 7.37764C25.3019 7.37764 25.455 7.5001 25.5238 7.58428C25.5927 7.66082 25.8759 8.11236 25.9448 8.32666L27.0545 8.36492C27.0545 8.36492 27.2688 9.03842 27.2688 9.29098C27.2688 9.32924 27.2994 9.62772 27.2994 9.67364V9.75783C27.2994 9.75783 27.7586 9.54354 27.7969 9.52823C27.8352 9.51292 28.3479 9.3369 28.4092 9.31394C28.4704 9.29098 28.8148 9.17618 28.9755 9.16087C29.3505 9.13026 29.4883 9.2221 29.5954 9.25271C29.7026 9.28332 29.7868 9.467 29.7868 9.467C29.7868 9.467 30.621 9.19148 31.5241 9.39047C31.6312 9.41343 32.297 9.60476 32.297 9.60476C32.297 9.60476 32.1976 10.4084 31.9603 11.0206C31.7613 11.5411 31.4093 11.9008 31.4093 11.9008L31.8914 12.2987L31.7077 12.6891C31.9833 12.5436 32.2435 12.4365 32.2435 12.4365C32.2435 12.4365 32.8481 12.8345 33.1695 13.3013C33.1466 13.2707 33.5905 12.9799 33.7818 12.8804C34.1415 12.6814 34.6466 12.6737 34.6466 12.6737C34.6466 12.6737 34.7997 12.735 35.014 13.1176C35.0905 13.2631 35.0599 13.4391 35.0599 13.4391C35.0599 13.4391 35.8482 13.5233 36.1773 13.6534C36.5676 13.8064 36.7513 14.0054 36.7513 14.0054C36.7513 14.0054 36.6901 14.4876 36.4834 14.9544C36.4605 15.0157 36.3533 15.184 36.2844 15.3218C36.2232 15.4596 36.1237 15.5897 36.1237 15.5897C36.1237 15.5897 36.1543 15.6739 36.2691 15.8116C36.3533 15.9111 36.4145 16.0565 36.4145 16.0565C36.4145 16.0565 36.3916 16.1713 36.315 16.332C36.0242 17.679 36.4069 18.2377 36.5523 18.3908C36.7207 18.4597 36.8278 18.4979 36.8278 18.4979L36.6747 19.3015C36.6747 19.3015 36.9273 19.6536 37.1569 20.0592C37.3942 20.4878 37.6238 20.9623 37.6238 20.9623L36.889 21.5669L38.3891 21.873C38.3891 21.873 38.3355 22.118 38.3049 22.2328C38.2819 22.3169 38.1901 22.5618 38.1901 22.5618L38.9784 22.7991L38.458 23.993L38.7641 24.59L38.8866 24.8119C38.8866 24.8119 38.9325 24.8502 38.8253 24.9191C38.7182 24.988 38.3202 25.4089 37.6391 25.4625C37.5855 25.4625 37.6467 25.4931 37.6467 25.4931C37.6467 25.4931 37.9911 25.6768 38.2896 25.8987C38.6187 26.136 38.9172 26.4038 38.9172 26.4038L38.6799 26.8783C38.6799 26.8783 39.1315 27.1921 39.4146 27.6437C39.6825 28.0799 39.8738 28.6539 39.8738 28.6539C39.8738 28.6539 39.6595 28.9294 39.2845 29.159C38.833 29.4422 38.0523 29.6641 38.0523 29.6641L38.037 30.2228C38.037 30.2228 37.4783 30.2611 37.2487 30.2458C36.9044 30.2228 36.6441 30.131 36.4758 30.0468C36.4069 30.108 36.3457 30.1616 36.3457 30.1616C36.3457 30.1616 36.2844 30.7739 35.7946 30.9729C35.7334 30.9958 35.6109 31.0341 35.4961 31.0723L35.5574 31.1795C35.5574 31.1795 36.139 31.0877 36.713 31.7382C37.111 32.1821 37.1875 32.6413 37.0191 33.1923C36.9044 33.5903 36.5446 33.9194 35.986 34.0725C35.4273 34.2255 34.7538 33.7969 34.417 33.3148C34.1338 32.9168 34.2027 32.3887 34.241 32.2663C34.2793 32.1438 34.4094 31.9219 34.4094 31.9219L34.2333 31.5469C34.2333 31.5469 34.2104 31.4933 34.1951 31.4397C34.1798 31.4397 34.1645 31.4397 34.1492 31.4397C34.0803 31.4397 34.019 31.4321 33.9655 31.4244C33.9655 31.6463 33.9502 32.0137 33.9042 32.4117C33.843 32.9091 33.7435 33.4831 33.6823 33.8046C33.6517 34.0342 33.6211 34.348 33.6211 34.3709C33.6211 34.4092 33.6134 34.5163 33.6134 34.5163C33.6134 34.5163 33.1236 33.1694 33.0241 32.9091C32.9858 32.802 32.5726 32.0214 32.0904 31.2866C31.4552 30.3147 30.7205 29.335 30.7205 29.335L29.1362 27.3758C29.1362 27.3758 28.7306 26.8707 28.3173 26.4191C27.8811 25.937 27.4295 25.5084 27.4295 25.5084C27.4295 25.5084 27.4984 25.34 27.5214 25.3017C27.5443 25.2635 27.6132 25.1946 27.6132 25.1946L27.7127 25.1181C27.7127 25.1181 29.3964 26.9319 30.9118 28.9294C32.2282 30.6591 33.3915 32.603 33.3915 32.603L33.4374 32.7331C33.4833 32.4499 33.5445 32.0443 33.5445 31.9907C33.5445 31.9142 33.5675 31.6387 33.5675 31.5009C33.5675 31.4014 33.5598 31.3019 33.5675 31.2101C33.468 31.2331 33.2231 31.2637 32.894 31.1106C32.6644 31.0035 32.4807 30.7203 32.4425 30.6667C32.4042 30.6055 32.2052 30.2841 32.0674 30.1157C31.922 29.9473 31.8149 29.6565 31.7384 29.4269C31.6542 29.1973 31.8455 28.9371 31.8455 28.9371C31.8455 28.9371 31.7919 28.8223 31.7537 28.7457C31.5011 28.233 31.723 27.7891 32.0062 27.3375C32.2664 26.9166 32.343 26.7941 32.6414 26.6181C32.4118 26.1819 32.2511 25.5466 32.3124 25.5237C31.8608 25.715 31.5776 25.1181 31.2792 23.9624C31.1797 23.5797 31.1567 23.1894 31.149 23.0517C30.7128 23.22 29.1898 22.5465 28.6923 22.0032C28.5086 21.8042 28.2944 21.6128 28.2178 21.322C28.0188 20.5949 28.1183 20.6868 28.1719 20.1128C28.2178 19.6 28.0801 19.5617 28.0188 19.3551C27.9346 19.3321 27.7127 19.2097 27.6438 19.1714C27.4601 19.0643 27.4142 18.8347 27.3071 18.827C27.2305 18.827 27.2458 18.8194 27.177 18.827C27.1081 18.8347 26.9091 18.827 26.7943 18.8117C26.6795 18.7964 26.4499 18.7046 26.3198 18.6204C26.1897 18.5362 26.0366 18.4061 25.983 18.3372C25.9218 18.2683 25.8836 18.1841 25.8529 18.1841C25.8223 18.1841 25.7841 18.1765 25.7381 18.1765C25.6922 18.1841 25.4856 18.2989 25.3325 18.253C25.1794 18.2071 24.8657 18.0005 24.7891 17.9852C24.7126 17.9699 24.4983 17.878 24.4677 17.8627C24.2611 17.9852 23.8248 18.1765 23.3503 18.1918C23.0901 18.1995 22.6079 18.1459 22.3095 18.1153C22.2941 18.5362 22.3018 20.0669 23.1054 21.4368C24.3529 23.5797 25.7458 23.84 25.7458 23.84C25.7458 23.84 25.7841 23.8782 25.7381 23.9701C25.6922 24.0619 25.6616 24.0849 25.6157 24.1384C25.5774 24.192 25.5545 24.2303 25.5545 24.2303C25.5545 24.2303 24.1845 23.7864 23.0901 22.3476C22.8069 21.9802 22.3707 20.924 22.2482 20.6179C22.1793 20.6102 22.0875 20.6026 22.0339 20.6103C21.9727 20.6256 21.8349 20.5796 21.7278 21.0388C21.7278 21.0465 21.7355 21.0618 21.7355 21.0694C21.9651 21.9878 22.2253 23.3042 23.2049 24.0007C23.8937 24.4828 25.1718 24.6895 26.0443 25.1257C27.4754 25.8528 28.4933 27.0697 29.1209 28.4473C29.9016 30.1693 30.4526 30.8427 30.6669 31.08C30.8812 31.3173 32.4272 32.9321 32.5879 33.2C33.9961 35.4577 33.644 37.7231 33.5751 38.0981C33.7665 38.2818 33.866 38.3966 33.866 38.3966L33.8966 38.6951C33.8966 38.6951 33.9349 40.2334 33.843 41.4656C33.7741 42.3687 33.6899 43.2105 33.6899 43.2105L33.1925 42.8661L33.2154 57.8054C33.2384 57.8054 33.2614 57.8054 33.2767 57.8131C33.3456 57.8284 33.491 57.8284 33.5139 57.836C33.5369 57.8513 33.5828 57.8513 33.5905 57.9202C33.6058 57.9891 33.644 58.1039 33.644 58.1422C33.644 58.1804 33.6746 58.4024 33.6823 58.4713C33.6899 58.5401 33.7053 59.03 33.6976 59.1448C33.6899 59.2596 33.6746 59.4279 33.667 59.4892C33.6593 59.558 33.6211 59.7188 33.5675 59.7341C33.5139 59.7494 33.4757 59.757 33.3226 59.757C33.3226 60.0172 33.3302 62.275 33.3302 63.2163C33.3302 63.5225 33.1389 63.6296 32.871 63.6296C32.7103 63.6296 32.6032 63.6373 32.4272 63.6526C32.0368 63.6755 32.7792 64.3261 31.3021 64.3031C29.6031 64.2801 29.075 63.8822 29.075 63.8822V60.0325C29.0061 60.0096 28.9449 59.9943 28.8913 59.9713C28.8454 59.9484 28.524 59.8029 28.524 59.8029C28.524 59.8029 28.5546 59.2519 28.5393 58.8998C28.501 58.0427 28.9372 57.9661 28.9372 57.9661C28.9372 57.9661 28.9678 57.9738 29.0214 57.9814V57.0554C28.876 57.0248 27.5443 56.6957 26.4116 56.1064C25.4473 55.6013 24.6667 54.8512 24.5442 54.7288C24.4677 54.8206 24.3759 54.9048 24.2687 54.9737C23.8019 55.2722 23.1284 55.364 23.1284 55.364L22.8299 55.3793C22.8299 55.3793 22.761 55.3946 22.761 55.4252C22.7533 55.4558 22.7074 55.5707 22.5773 55.6855C22.4472 55.8079 22.2176 55.9839 21.636 56.0145C20.8094 56.0605 20.5951 55.8691 20.5951 55.8691C20.5951 55.8691 20.6334 55.4099 20.6793 54.8972C20.465 55.012 19.3629 55.6089 18.2302 55.9533C17.2583 56.2594 16.2633 56.3666 15.9189 56.3972C15.9189 56.6727 15.9266 57.6294 15.9495 58.0886C15.9495 58.1575 15.9495 58.1804 15.9495 58.1957C16.0796 58.1728 16.1409 58.1498 16.1409 58.1498C16.1409 58.1498 16.3092 58.4253 16.2939 59.0529C16.2863 59.4892 16.2021 59.6652 16.1256 59.7417C16.1026 59.7647 16.0337 59.7876 15.9342 59.8182V63.8822C15.9342 63.8822 15.4061 64.2801 13.7071 64.3031C12.23 64.3261 12.6892 63.6755 12.2989 63.6526C12.1229 63.6449 12.0999 63.6296 11.9468 63.6296C11.6637 63.6296 11.4494 63.4459 11.4494 63.2469C11.4494 62.3898 11.457 60.2851 11.457 59.9407C11.4188 59.9407 11.3805 59.9484 11.3575 59.956C11.2198 59.9943 10.883 59.9713 10.883 59.8412C10.883 60.0555 10.8601 58.1192 10.8601 58.1192C10.8601 58.1192 10.8601 57.9738 10.8907 57.9202C10.9213 57.8743 10.9902 57.8284 11.0591 57.836C4.46189 52.5629 0 42.6595 0 31.2943C0 14.4111 9.82687 0.726902 21.9651 0.696289H22.0416Z" fill="black"/>
<path fill-rule="evenodd" clip-rule="evenodd" d="M79.6329 49.8233C79.7248 49.3105 79.809 48.8054 79.8855 48.3156C79.962 47.8258 80.0309 47.3283 80.0998 46.8309H80.1534L80.6202 49.8233H79.6329ZM55.4255 52.3719H56.5428V49.3871L57.9434 45.1548H56.7648L56.3592 46.6931L56.0148 47.9712H55.9765L55.6474 46.7237L55.2035 45.1548H54.0249L55.4331 49.3871V52.3719H55.4255ZM60.2164 52.3719H61.3568L61.4869 51.6218C61.5328 51.3693 61.5787 51.1167 61.6247 50.8718H62.9487L63.2319 52.3719H64.3722L62.9104 45.1548H61.6629C61.418 46.364 61.1808 47.5656 60.9359 48.7595C60.6986 49.9534 60.4537 51.1626 60.2164 52.3719ZM67.0891 52.3719H70.2117V51.3234H68.2142V45.1548H67.0968V52.3719H67.0891ZM73.5409 52.3719H74.6583V46.2033H75.8216V45.1548H72.3776V46.2033H73.5409V52.3719ZM78.0564 52.3719H79.1967L79.3268 51.6218C79.3727 51.3693 79.4186 51.1167 79.4646 50.8718H80.7962L81.0794 52.3719H82.2198L80.758 45.1548H79.5105C79.2656 46.364 79.0283 47.5656 78.7834 48.7595L78.0564 52.3719ZM61.793 49.8233C61.8849 49.3105 61.9614 48.8054 62.0379 48.3156C62.1145 47.8258 62.1834 47.3283 62.2522 46.8309H62.3058L62.7727 49.8233H61.793Z" fill="black"/>
<path fill-rule="evenodd" clip-rule="evenodd" d="M113.376 36.4532H110.759L109.879 33.897L109.075 36.4532H106.45L108.601 37.9992L107.728 40.5554L109.948 39.0094L112.037 40.5554L111.295 37.9992L113.376 36.4532Z" fill="black"/>
<path fill-rule="evenodd" clip-rule="evenodd" d="M97.1438 36.4532L96.2637 33.897L95.4601 36.4532H92.835L94.9932 37.9992L94.1131 40.5554L96.3325 39.0094L98.4219 40.5554L97.6795 37.9992L99.7612 36.4532H97.1438Z" fill="black"/>
<path fill-rule="evenodd" clip-rule="evenodd" d="M83.6125 36.4532L82.7401 33.897L81.9288 36.4532H79.3037L81.462 37.9992L80.5818 40.5554L82.8013 39.0094L84.8906 40.5554L84.1483 37.9992L86.2376 36.4532H83.6125Z" fill="black"/>
<path fill-rule="evenodd" clip-rule="evenodd" d="M70.7015 37.9992L72.7908 36.4532H70.1658L69.2933 33.897L68.482 36.4532H65.8569L68.0152 37.9992L67.135 40.5554L69.3545 39.0094L71.4439 40.5554L70.7015 37.9992Z" fill="black"/>
<path fill-rule="evenodd" clip-rule="evenodd" d="M56.7185 36.4532L55.846 33.897L55.0348 36.4532H52.4097L54.5679 37.9992L53.6878 40.5554L55.9149 39.0094L57.9966 40.5554L57.2542 37.9992L59.3436 36.4532H56.7185Z" fill="black"/>
<path fill-rule="evenodd" clip-rule="evenodd" d="M57.5148 14.9404H59.8185L57.1322 28.9766H54.53L51.8896 14.9404H54.2086L55.1576 20.711L55.8005 25.127H55.9076L56.5505 20.711L57.5148 14.9404Z" fill="black"/>
<path d="M64.9763 14.9395H62.8027V28.9757H64.9763V14.9395Z" fill="black"/>
<path fill-rule="evenodd" clip-rule="evenodd" d="M68.75 28.9757V14.9395H70.9312V26.9399H74.8191V28.9757H68.75Z" fill="black"/>
<path fill-rule="evenodd" clip-rule="evenodd" d="M77.605 28.9757V14.9395H79.7862V26.9399H83.6741V28.9757H77.605Z" fill="black"/>
<path fill-rule="evenodd" clip-rule="evenodd" d="M89.6049 18.1921C89.4671 19.1641 89.3294 20.1284 89.184 21.0851C89.0385 22.0494 88.8702 23.029 88.7018 24.0163H90.6151L89.712 18.1921H89.6049ZM91.5029 28.9757L90.9595 26.0521H88.3804C88.2885 26.5342 88.1967 27.0241 88.1048 27.5139C88.0206 28.0037 87.9365 28.4935 87.8523 28.9757H85.6328C86.0997 26.6261 86.5742 24.2842 87.041 21.9576C87.5079 19.6309 87.9824 17.289 88.4492 14.9395H90.8677L93.7147 28.9757H91.5029Z" fill="black"/>
<path fill-rule="evenodd" clip-rule="evenodd" d="M102.333 28.9757V14.9395H108.562V16.9752H104.506V20.8096H108.034V22.8836H104.506V26.9399H108.562V28.9757H102.333Z" fill="black"/>
<path fill-rule="evenodd" clip-rule="evenodd" d="M111.608 28.9757V14.9395H113.782V26.9399H117.677V28.9757H111.608Z" fill="black"/>
<path fill-rule="evenodd" clip-rule="evenodd" d="M120.463 28.9757V14.9395H126.693V16.9752H122.637V20.8096H126.165V22.8836H122.637V26.9399H126.693V28.9757H120.463Z" fill="black"/>
<path fill-rule="evenodd" clip-rule="evenodd" d="M131.851 20.8096V28.9757H129.67V14.9395H131.629L133.321 19.1105C133.458 19.4626 133.588 19.807 133.726 20.1361C133.856 20.4728 134.002 20.8172 134.147 21.1616L134.851 23.0979C134.882 23.0979 134.897 23.0979 134.897 23.0902C134.905 23.0826 134.92 23.0826 134.951 23.0826V14.9395H137.086V28.9757H135.18L133.497 24.8199C133.229 24.1311 132.961 23.4653 132.701 22.7994C132.44 22.1412 132.18 21.4754 131.928 20.8019H131.851V20.8096Z" fill="black"/>
<path fill-rule="evenodd" clip-rule="evenodd" d="M143.898 18.1921C143.76 19.1641 143.622 20.1284 143.477 21.0851C143.331 22.0494 143.163 23.029 142.995 24.0163H144.908L143.997 18.1921H143.898ZM145.788 28.9757L145.245 26.0521H142.666C142.574 26.5342 142.482 27.0241 142.39 27.5139C142.306 28.0037 142.222 28.4935 142.137 28.9757H139.918C140.385 26.6261 140.859 24.2842 141.326 21.9576C141.793 19.6309 142.268 17.289 142.734 14.9395H145.153L148 28.9757H145.788Z" fill="black"/>
</svg>
